<?xml version="1.0" standalone="no"?>
<!DOCTYPE svg PUBLIC "-//W3C//DTD SVG 1.1//EN" "http://www.w3.org/Graphics/SVG/1.1/DTD/svg11.dtd" >
<svg xmlns="http://www.w3.org/2000/svg">
<metadata></metadata>
<defs>
<font id="popsregular" horiz-adv-x="1705" >
<font-face units-per-em="2048" ascent="1536" descent="-512" />
<missing-glyph horiz-adv-x="897" />
<glyph horiz-adv-x="0" />
<glyph horiz-adv-x="0" />
<glyph unicode="&#xd;" horiz-adv-x="1024" />
<glyph unicode=" "  horiz-adv-x="897" />
<glyph unicode="&#x09;" horiz-adv-x="897" />
<glyph unicode="&#xa0;" horiz-adv-x="897" />
<glyph unicode="!" horiz-adv-x="894" d="M35 53q-4 27 4 63t27.5 70.5t47 62t62.5 38.5q37 10 58.5 -0.5t33.5 -20.5q14 -16 18.5 -36.5t2.5 -44t-7.5 -47t-11.5 -44.5l-2 -2q-4 -27 -32 -26q-14 0 -23 8q-35 -72 -107 -78q-2 -2 -8 -2q-53 0 -63 59zM100 63q33 2 52 35q10 18 16 35q-18 -23 -43 -10q-8 4 -10 8 q-12 -29 -14.5 -46t-0.5 -22zM276.5 429q-4.5 13 4.5 28q31 53 53 97t43.5 85t43 84t50.5 96q-8 90 21.5 202t75.5 214t97.5 181t88.5 102q25 16 44 12t31 -14q2 -6 6.5 -15.5t1.5 -35t-16.5 -71.5t-46.5 -124t-88 -192.5t-141 -276.5q2 -10 4 -19.5t6 -19.5q6 -12 1 -26.5 t-19 -18.5q-16 -10 -35 4q-23 -41 -39.5 -73t-33.5 -64.5t-37.5 -71.5t-49.5 -90q-11 -19 -31 -19q-10 0 -16 7q-14 6 -18.5 19zM555 977q78 154 133.5 274t75.5 181q-27 -31 -61.5 -89.5t-73.5 -144.5q-25 -59 -44.5 -114.5t-29.5 -106.5z" />
<glyph unicode="%" horiz-adv-x="1302" d="M207 860q-4 23 0 46.5t13 47t20 45.5l8 19q8 23 31.5 53.5t55.5 60t69.5 52t74.5 28.5q63 6 101 -36q29 -33 19.5 -78t-26.5 -80q-43 -78 -94 -127q96 35 192.5 101.5t200.5 166.5l2 2q41 39 85.5 84t84 91t71.5 89t44 78q4 10 16.5 15.5t28.5 1.5q14 -4 21.5 -15.5 t3.5 -21.5q-29 -78 -92.5 -206t-146.5 -281.5t-179 -319.5t-193 -318q66 63 134.5 128t131 117t113 86t78.5 40q37 10 75 -2t56 -43q10 -16 14.5 -42t-9 -62.5t-50.5 -86t-110 -112.5q-59 -53 -108.5 -54t-82.5 25q-25 18 -32 51t10 74q-55 -53 -113.5 -110.5t-116 -117 t-113 -116.5t-100.5 -108q-6 -7 -20 -11q-14 -2 -33 4q-25 16 -6 39q84 117 178 266.5t187.5 307t178.5 312.5t150 282q-23 -29 -48.5 -53.5t-51.5 -49.5l-4 -4q-143 -141 -277.5 -219t-275.5 -102q-109 -18 -144 24q-18 16 -22 39zM326 958q-10 -35 16 -67q6 -10 10 -6 q12 0 31.5 12t41 33.5t43 49.5t38.5 60q20 39 22 63.5t-4 31.5q-12 14 -35 10q-35 -4 -73 -33q16 6 28.5 10t28.5 8q12 4 24.5 -1t16.5 -19q6 -12 0 -22.5t-18 -14.5q-51 -16 -101.5 -45t-68.5 -70zM900 430q-1 -24 9 -35q12 -8 36 -3t54 32q104 88 132 146.5t12 82.5 q-10 16 -24.5 18.5t-26.5 2.5q-4 -2 -14.5 -6t-20.5 -9q10 0 22 -6q29 -6 39 -25.5t10 -35.5q2 -14 -9 -23.5t-27 -9.5q-12 0 -23.5 8t-11.5 23v2q0 2 -1 2t-1 2q-6 -2 -36 -20.5t-89 -86.5q-29 -35 -30 -59z" />
<glyph unicode="(" horiz-adv-x="1112" d="M-29 353q4 118 62 241q61 135 136 257t153.5 226.5t154.5 188.5t137 139q123 111 221.5 134.5t184.5 -34.5q10 -10 13 -23.5t-5 -23.5q-16 -25 -45 -10q-23 14 -50.5 25.5t-67.5 5.5t-91 -34t-119 -89q-61 -55 -135 -136t-149.5 -182.5t-149.5 -220.5t-133 -250 q-49 -111 -53 -213t37 -182q27 -47 65.5 -78t85.5 -35q55 -8 107.5 -6t93.5 7.5t69.5 11.5t34.5 10q12 4 24.5 0t18.5 -19q10 -29 -16 -43q-14 -6 -78.5 -19t-154.5 -13q-51 0 -107 6q-63 8 -113.5 47t-85.5 102q-49 92 -45 210z" />
<glyph unicode=")" horiz-adv-x="1357" d="M-2 21.5q4 13.5 14 21.5q72 43 176.5 111.5t221 150.5t233.5 172t213 177t158.5 167t72.5 140q16 111 0 198.5t-48.5 153t-73.5 109.5t-72 67q-12 8 -15.5 21.5t5.5 23.5q8 12 21.5 15t23.5 -5q41 -25 88 -75t84 -124.5t54 -173t-1 -219.5q-10 -59 -60.5 -131.5 t-127 -150.5t-173 -157t-195.5 -153.5t-194.5 -140t-171 -116t-126 -82t-58.5 -35.5t-16 -4q-20 0 -29 16q-8 10 -4 23.5z" />
<glyph unicode="+" horiz-adv-x="1605" d="M102 668q-8 14 0.5 30.5t22.5 20.5q2 0 37 1t89 2t120.5 3t134 4t129 4t102.5 4l-6 140q-2 47 -2 113.5t2 125.5q0 70 2 146q-6 18 2 34.5t29 20.5q14 8 29.5 0t19.5 -19q2 0 5 -21.5t4 -58t0 -84t-3 -98.5q-2 -29 -2 -108.5v-184.5q55 2 137 0t171 -6t175 -12t150 -18 q16 -4 25.5 -17.5t7.5 -32.5q-10 -31 -39 -34q-6 -4 -12 0q-59 12 -143.5 20t-172.5 12t-168 6.5t-131 0.5v-166t-2 -159t-6 -136.5t-10 -96.5q-4 -12 -16.5 -21t-30.5 -7q-33 10 -35 35q-4 6 0 10q8 37 13 99.5t7 136t2 151.5t-2 149q-63 -4 -161.5 -7t-190.5 -5 q-111 -2 -227 -4q-43 -12 -56 27z" />
<glyph unicode="," horiz-adv-x="393" d="M-53 -106q53 39 84.5 67.5t48 57t24 61.5t13.5 82q2 8 13 11t22 1q8 0 21 -5t13 -13q-2 -57 -6 -98.5t-21.5 -75t-53 -64.5t-101.5 -70q-4 0 -14 6.5t-20.5 14.5t-17.5 15t-5 10z" />
<glyph unicode="-" horiz-adv-x="776" d="M111 659q-6 14 6 38t26 24q84 0 138.5 2t113 3t140 1t221.5 -6q16 0 30.5 -15.5t12.5 -33.5q-14 -35 -51 -35q-90 6 -165 6t-142.5 -3t-131 -6t-133.5 -1q-41 2 -49 5t-16 21z" />
<glyph unicode="." horiz-adv-x="428" d="M41 72q0 35 18.5 58.5t44.5 23.5q25 0 42.5 -11.5t29.5 -25.5q12 -16 23 -37q8 -23 -15 -31q-4 -2 -10 -2v-20q-4 -8 -16 -21.5t-41 -13.5q-39 0 -58 26q-8 10 -13 24.5t-5 29.5zM94 66q0 -8 4 -17q4 -2 6 -5t13 -3q8 0 8 2q2 4 2 10h-8q-19 -5 -25 13z" />
<glyph unicode="/" horiz-adv-x="864" d="M71 23.5q-3 13.5 3 25.5q14 23 29.5 48.5t31.5 52.5q-4 2 -6 4t-6 2q-10 10 -11 24.5t9 24.5q35 41 65.5 77.5t59.5 75.5q82 160 161.5 333t148.5 331t119 286t70 197q8 33 43 23q12 -4 18.5 -16.5t2.5 -24.5q-4 -10 -6 -26.5t-6 -35.5q-10 -63 -34 -169.5t-77 -250 t-145 -316.5t-240 -367q-43 -86 -86 -165t-82 -145q-9 -14 -27 -14q-8 0 -20 4q-12 8 -15 21.5z" />
<glyph unicode="0" horiz-adv-x="987" d="M31 152q-16 90 1 224t58 280.5t101.5 291t127.5 254.5q-10 -10 -22 -16q-10 -8 -22.5 -6t-20.5 12q-16 25 6 43q29 20 67 42.5t79 45.5q35 39 67.5 65.5t67.5 36.5q72 23 112.5 3.5t59.5 -48.5q4 -2 7 -2t7 -2q98 -35 129 -147q20 -74 2 -198t-64 -266t-115 -285.5 t-149 -252.5q-172 -233 -337 -239h-9q-18 0 -40.5 6t-45 23.5t-41 49t-26.5 85.5zM86 321.5q-8 -92.5 4 -159.5q8 -43 21.5 -66.5t29 -34t28.5 -11.5t19 -1q70 2 145 56.5t148 158.5q80 109 145.5 249t108.5 275.5t60.5 250t1.5 173.5q-14 59 -54 88q10 -66 0 -147.5 t-30.5 -158t-48 -139t-50.5 -87.5q-8 -10 -20 -10t-23 8q-10 10 -10 21.5t10 21.5q20 23 46 88.5t44.5 145t24.5 157.5t-12 127q-51 6 -112 -10t-120 -45q-49 -59 -96 -146.5t-91 -187.5t-79 -208.5t-58.5 -212t-31.5 -196z" />
<glyph unicode="1" horiz-adv-x="665" d="M-317 14q-4 33 28 37q80 8 144.5 11.5t117.5 3.5q86 0 140.5 -8.5t85 -19.5t43 -24.5t14.5 -21.5q4 -14 -2 -25.5t-18 -15.5q-29 -8 -39 16q-4 2 -22.5 11.5t-71 15.5t-144.5 6t-242 -14q-12 -2 -22 7t-12 21zM-76 43q8 29 36 95.5t69 155.5t90 194.5t102 211.5 q-14 -12 -31 -6q-12 4 -18 15.5t-2 23.5q0 4 2 7t8 9.5t17.5 16.5t31.5 29q14 12 30.5 26.5t37.5 32.5q74 150 127 252t90 168.5t59.5 104.5t36 55.5t20.5 21.5t11 6q6 0 17.5 1t23.5 -7q14 -12 22.5 -47t8.5 -129q0 -45 -31 -99.5t-81 -114.5t-116.5 -124.5t-138.5 -128.5 q-61 -125 -121.5 -251t-109.5 -233.5t-84 -188.5t-45 -115q-6 -23 -31 -23q-6 0 -10 2q-12 4 -18.5 15.5t-2.5 23.5zM428 977q41 39 81 82t70.5 83t50 75.5t19.5 62.5q0 35 -1 57.5t-3 38.5q-31 -47 -88 -154.5t-129 -244.5z" />
<glyph unicode="2" horiz-adv-x="1449" d="M-14 47q-12 66 63 154q29 31 61.5 44t71.5 13q72 88 163 190.5t194 196.5q90 82 193.5 178.5t199.5 185.5t176 161.5t123 109.5q-39 16 -90 36.5t-103.5 37t-99.5 26t-78 4.5q-45 -6 -96 -24.5t-96 -37.5t-77 -35.5t-38 -20.5q-23 -20 -43 4q-10 8 -10 20.5t10 22.5 q2 0 2 2q10 6 20.5 20.5t12.5 28.5q10 29 41 25q16 -6 22 -23q53 27 119 50.5t125 33.5q49 8 122 -9.5t141.5 -43t120.5 -50t64 -30.5q14 -6 19 -25q2 -14 -10 -26q-127 -119 -254 -236q-55 -51 -114.5 -106.5t-121 -111.5t-121 -111.5t-112.5 -104.5q-92 -84 -176 -175 t-150 -173q70 -16 146.5 -52t154.5 -75q23 -12 45.5 -23.5t44.5 -21.5q309 -152 547 270q6 12 19.5 16.5t25.5 -2.5q27 -16 12 -45q-194 -346 -442 -346q-96 0 -190 47q-23 12 -45.5 23.5t-45.5 23.5q-86 43 -169.5 80t-149.5 47q-66 -82 -103.5 -134t-37.5 -54 q-14 -23 -39 -12q-4 2 -21.5 15t-25.5 42zM55 92q12 16 28 36.5t36 43.5q-12 -6 -21 -14q-37 -43 -43 -66z" />
<glyph unicode="3" horiz-adv-x="1187" d="M11 137.5q5 36.5 22.5 73.5t45 68.5t64.5 54.5q6 4 18.5 11t26 11t27.5 3t27 -13q18 -18 14 -54t-17.5 -70t-28.5 -60l-15 -25q-8 -14 -21.5 -17t-23.5 5q-10 6 -15.5 19.5t4.5 25.5q10 16 25.5 53t23.5 64q-4 -2 -10 -8q-29 -18 -50.5 -43t-33.5 -51.5t-15 -52.5t3 -44 q4 -10 14 -20.5t41 -10.5q39 2 96.5 24.5t123 58.5t135 82t135 95.5t123 99.5t96.5 93q53 59 76.5 112.5t13.5 94.5q-8 29 -25.5 44t-31.5 19q-8 4 -23.5 2t-36.5 -6q-70 -78 -135.5 -128t-110.5 -50q-10 0 -33.5 3t-31.5 26q-14 33 20 67q14 14 41 32.5t62 37t72.5 36 t74.5 29.5q51 57 103.5 125t93.5 132.5t67.5 122t28.5 94.5q0 14 -3 16t-9 4q-37 0 -76 -8t-80 -23q-33 -41 -69.5 -82t-73.5 -74.5t-69 -58t-56 -30.5q-10 -4 -35 -6.5t-41 18.5q-4 8 -8 22.5t6 36.5q10 20 39 50t70 61t91 61.5t103 55.5q37 45 62.5 79.5t33.5 49.5 q4 23 31 22q14 0 23.5 -10t9.5 -23q0 -10 -12.5 -31.5t-34.5 -52.5q45 8 88 6q35 -2 56.5 -24.5t19.5 -61.5q0 -35 -21.5 -87t-56.5 -113.5t-80 -126t-94 -125.5q8 -2 20 -6q74 -35 96 -111q4 -20 3.5 -47t-11 -59.5t-33 -72.5t-63.5 -85q-63 -72 -163.5 -153t-210 -150.5 t-212 -117.5t-170.5 -54h-14q-41 0 -69.5 19.5t-41.5 56.5q-10 33 -5 69.5zM647 1126q16 10 34.5 26t41.5 36q-23 -18 -42 -33.5t-34 -28.5z" />
<glyph unicode="4" horiz-adv-x="1103" d="M98.5 596q-2.5 12 3.5 22l7 11q2 0 6 4l16 16q29 27 69 103.5t82 173t81.5 198t70.5 176.5q25 63 40 99.5t23.5 55t12.5 22.5l8 8q12 8 25.5 5t19.5 -13q14 -20 -2 -41q-6 -10 -24.5 -58.5t-40.5 -101.5q-59 -154 -119 -298t-113 -245q43 23 92.5 43.5t101.5 31.5t106 10 t108 -19q104 -37 142 -62.5t30 -54.5q-4 -23 -26.5 -32t-47.5 -5q-25 2 -31 14.5t-6 18.5q0 4 1 10t7 14q-16 6 -37.5 14.5t-54.5 20.5q-55 18 -113.5 15.5t-112.5 -20t-103.5 -43t-86 -50.5t-58 -42t-23.5 -17q-15 -11 -23 -11q-10 0 -18 9q-10 6 -12.5 18zM291 31 q6 18 42 103t91 207t123.5 266.5t136.5 283.5q-10 4 -17.5 13t-4.5 20q2 41 16 73.5t35.5 59t48 48t51.5 42.5q2 6 6 6q47 88 85 150.5t61 82.5q8 18 30 19q27 -4 31 -31q0 -16 -8 -24q-4 -4 -8 -19.5t-13 -50.5q-14 -55 -50 -94t-77 -74q-45 -86 -98 -191.5t-107.5 -217 t-106.5 -221t-94 -203t-70.5 -164t-39.5 -103.5q-9 -22 -32 -22q-6 0 -11 2q-12 4 -18 15t-2 24z" />
<glyph unicode="5" horiz-adv-x="1148" d="M-12 601q-2 22 4 36q8 16 65.5 70.5t143.5 129t188.5 161.5t202.5 170t186 155t137 115q10 8 23.5 7t24.5 -13q10 -10 8 -23.5t-13 -22.5q-109 -88 -237.5 -195.5t-251.5 -210.5t-224.5 -191.5t-152.5 -137.5q14 2 72.5 26.5t138.5 57.5t172 64.5t174 46t144.5 2.5 t83.5 -66q16 -41 14 -97t-20.5 -118.5t-53.5 -129t-84 -128.5q12 2 21.5 4t17.5 4t14 5q35 6 41 -25q4 -14 -3 -25.5t-21 -15.5q-4 0 -43 -9t-103 -22q-43 -37 -102 -76.5t-124.5 -72.5t-130.5 -54.5t-116 -21.5q-33 0 -51 8q-31 12 -52.5 53t-25.5 84t10.5 77t55.5 34 q59 -8 125.5 -7t133 6t130 13t117.5 19q57 57 98 123.5t64.5 130t29.5 118t-6 89.5q-6 16 -25.5 24t-44 11t-48 1t-33.5 -4q-219 -82 -346.5 -129t-193 -68.5t-88 -22.5t-34.5 11q-10 8 -12 30zM117 190q-2 -10 1 -28.5t7 -36.5l2 -8q12 -39 31 -47q27 -10 79 3t107 37.5 t104.5 51t73.5 43.5q-96 -14 -202.5 -20.5t-202.5 5.5zM726 1326q3 22 36 46q16 12 78.5 26.5t140.5 21.5t157 3t130 -26q27 -16 16 -45q-6 -12 -19.5 -16.5t-25.5 -0.5q-43 20 -109.5 22.5t-133 -3.5t-122 -18.5t-77.5 -18.5q4 -10 -6.5 -22.5t-61.5 -2.5q-6 12 -3 34z" />
<glyph unicode="6" horiz-adv-x="1026" d="M-61.5 -36q-4.5 13 2.5 24q12 25 21 43t19.5 39.5t23.5 48t32 63.5q27 84 88 199t149 262q76 145 152 285.5t139.5 252t110.5 184.5t65 83q25 16 39.5 12t24.5 -14q12 -12 11 -32.5t-25.5 -70t-79 -136.5t-148.5 -232q-47 -76 -107.5 -169t-119.5 -194 q-61 -117 -122.5 -235.5t-121.5 -233.5q-12 -51 -2 -67q6 -8 41 -14.5t77 -10.5t78 -4t44 4q0 84 11 192.5t40 212t77 186.5t120 116q20 8 59 8t82 -11.5t86 -33t72.5 -52t43 -71.5t-2.5 -92q-23 -63 -80.5 -140t-132 -150t-156.5 -134.5t-150 -93.5q0 -14 4.5 -24.5 t4.5 -17.5t-6.5 -12.5t-26.5 -9.5q-39 -8 -51 62q-35 -2 -77 -3t-82 3t-75 14t-53 33q-8 -16 -12.5 -23.5t-6.5 -13.5t-6 -13.5t-12 -21.5q-9 -20 -29 -20q-4 0 -16 4q-12 6 -16.5 19zM399 59q70 43 142.5 99.5t135 120t111 128t66.5 119.5q12 37 -10.5 73t-60.5 62.5 t-82.5 38.5t-77.5 0q-68 -25 -110 -104.5t-66.5 -179t-34 -197.5t-13.5 -160z" />
<glyph unicode="7" horiz-adv-x="1062" d="M-2 967q4 31 28.5 83t110.5 136q39 66 63.5 125t55.5 133q18 29 43 14q14 -4 19.5 -17.5t-3.5 -25.5q-6 -12 -27.5 -59t-51.5 -107q45 29 96 52.5t106 37.5q147 31 260 28t195 -9l2 -2q78 96 106 112q31 14 63 8t48 -28q14 -20 14 -54t-34 -75q-29 -29 -69 -32t-99 1 q-37 -49 -71 -94t-71 -101.5t-84 -129t-112 -175.5q-104 -162 -191.5 -318.5t-146.5 -272.5q18 2 28 -15q8 -12 5.5 -25.5t-13.5 -21.5q-6 -4 -17 -14t-23.5 -23.5t-26 -28t-21.5 -24.5q-23 -23 -35 -36t-22 -15q-8 -2 -23 6q-20 16 -13 33.5t15 32.5q8 10 23.5 39.5 t38.5 70.5q27 53 65.5 127t85.5 159t101.5 178t113.5 185q51 78 90 139.5t75 116t72 105.5t81 110q-78 4 -175.5 4t-219.5 -26q-88 -20 -154 -53t-125 -88q-23 -43 -37 -76t-24.5 -56.5t-20.5 -40t-24 -28.5q-16 -14 -28.5 -13t-23.5 5q-4 2 -13 11t-5 32zM240 770 q-4 14 2 25.5t18 15.5q29 8 39 -16q2 -2 21.5 -11.5t71.5 -15.5t144.5 -7t241.5 15q12 2 22.5 -7t12.5 -21q4 -33 -29 -37q-80 -8 -144.5 -11.5t-117.5 -3.5q-86 0 -140 8.5t-85 19.5t-43 23.5t-14 22.5zM973 1352q53 -4 69 10q16 18 18.5 30.5t-1.5 16.5q-8 12 -29 0 q-8 -4 -21 -19t-36 -38z" />
<glyph unicode="8" horiz-adv-x="1480" d="M-6 80q4 41 61.5 90t155.5 123q31 23 61.5 44t57.5 44q23 18 61.5 48t91.5 71q12 8 17 12q23 76 45 141.5t43 104.5q18 35 46 89t62.5 118.5t72.5 132t77 131.5q-66 -37 -125 -76t-105.5 -72.5t-76 -62.5t-31.5 -45q-2 -10 -2 -16.5v-10.5v-6q4 0 14 4t21 8q29 10 43 -14 q6 -12 2 -25.5t-17 -17.5l-14 -7t-25.5 -8t-32 -1t-30.5 12q-35 27 -23 92q6 39 62.5 90t130.5 102.5t150.5 95.5t127.5 70q41 59 72 95.5t47 36.5q14 0 24.5 -9.5t10.5 -23.5q0 -10 -7 -18.5t-18 -12.5l-9 -9t-11 -14q47 14 108.5 32t123 27t114.5 5t82 -29 q14 -12 24.5 -36.5t0.5 -65.5q-18 -66 -105.5 -160t-215.5 -206.5t-283.5 -235.5t-315.5 -244q-27 -86 -46 -174t-30 -154q-4 -29 -33.5 -65.5t-113.5 -61.5q-37 -10 -80 -15t-86 -5q-53 0 -98 9t-64 30q-16 18 -12 43zM59 78q12 -6 41 -11.5t68 -5.5t83 6.5t85 20.5 q27 10 52.5 25.5t29.5 42.5q8 53 22.5 118.5t32.5 137.5q-35 -27 -60.5 -46.5t-41.5 -33.5q-29 -23 -59.5 -46.5t-61.5 -45.5q-25 -18 -55.5 -41t-59.5 -46.5t-50.5 -43t-25.5 -31.5zM586 578q76 57 165 125.5t177 140t171 143.5t149.5 136.5t110.5 119.5t54 94q6 20 3 26.5 t-5 10.5q-18 16 -68.5 15.5t-113 -14t-131 -34t-125.5 -43.5q-4 -2 -7 -3t-5 -3q-59 -92 -142.5 -239.5t-173.5 -323.5q-14 -25 -28.5 -64.5t-30.5 -86.5z" />
<glyph unicode="9" horiz-adv-x="907" d="M-0.5 734q14.5 52 50.5 110.5t87 121t103 117.5q209 227 341 310.5t224 44.5q49 -20 71.5 -46t28.5 -51.5t1 -49t-11 -42.5l-6 -10q0 -6 -2 -8q4 -4 8 -4q18 -25 -2 -47q-4 -4 -26.5 -25.5t-59.5 -56.5q-68 -104 -184 -277q-63 -92 -139 -204.5t-146 -219.5 q-20 -51 -37.5 -116.5t-32.5 -116.5q-8 -31 -13 -53.5t-9 -34.5q-10 -29 -31.5 -54.5t-52.5 -29.5h-6q-12 0 -29.5 7t-34.5 34q-8 14 -4 39.5t25.5 71.5t61.5 115t106 167q16 45 32 68q6 8 21 12q47 72 105.5 160t129.5 192q23 35 45 64q-53 -45 -110.5 -90.5t-112.5 -84 t-106.5 -68.5t-94.5 -44q-139 -49 -182 14q-23 33 -8.5 85zM62.5 715.5q-3.5 -23.5 0.5 -29.5t28 -8t79 16q59 20 138 73.5t161 119t159 133t132 119.5q29 45 47 75.5t22 45.5l5 8q12 37 8 62.5t-64 47.5q-14 8 -37 8q-72 0 -181 -82.5t-273 -263.5q-82 -90 -129 -153.5 t-69.5 -105.5t-26 -65.5zM150 61l6 -6q4 0 12 10.5t16 30.5q4 10 9.5 33t13.5 51q0 2 1 4t1 6q-27 -47 -42 -80t-17 -49z" />
<glyph unicode=":" horiz-adv-x="1026" d="M145 215q0 47 25 79t61 32q33 0 57.5 -15.5t41.5 -34.5q18 -23 30 -49q10 -33 -22 -43q-2 -4 -12 -4v-26q-4 -12 -21.5 -31t-58.5 -19q-23 0 -44.5 9.5t-31.5 27.5q-12 16 -18.5 36t-6.5 38zM145 829q0 47 25 79t61 32q33 0 57.5 -15.5t41.5 -33.5q18 -23 30 -49 q10 -33 -22 -43q-2 -4 -12 -4v-27q-4 -12 -21.5 -30.5t-58.5 -18.5q-23 0 -44.5 9t-31.5 28q-12 16 -18.5 35.5t-6.5 37.5zM215 205q0 -6 2 -11.5t4 -9.5q4 -4 9.5 -8t15.5 -4h8t4 2q4 6 4 16h-12q-25 -10 -35 15zM215 819q0 -6 2 -11t4 -9q4 -4 9.5 -8.5t15.5 -4.5h8t4 2 q4 6 4 17h-12q-25 -11 -35 14z" />
<glyph unicode=";" horiz-adv-x="995" d="M27 -98q55 45 86.5 87t49 85t25 90t13.5 102q2 10 20.5 18.5t28.5 6.5q8 0 29.5 -11.5t21.5 -19.5q-2 -66 -6 -121t-21.5 -105t-54 -95.5t-104.5 -88.5q-4 0 -19.5 7.5t-32 16.5t-27.5 16.5t-9 11.5zM145 829q0 47 25 79t61 32q33 0 57.5 -15.5t41.5 -33.5q18 -23 30 -49 q10 -33 -22 -43q-2 -4 -12 -4v-27q-4 -12 -21.5 -30.5t-58.5 -18.5q-23 0 -44.5 9t-31.5 28q-12 16 -18.5 35.5t-6.5 37.5zM215 819q0 -6 2 -11t4 -9q4 -4 9.5 -8.5t15.5 -4.5h8t4 2q4 6 4 17h-12q-25 -11 -35 14z" />
<glyph unicode="=" horiz-adv-x="1380" d="M102 575q-4 16 8.5 28.5t26.5 12.5q4 0 34 -1t73 -2t93 0t97 5q27 2 81 4.5t124 3.5t147.5 2t152.5 -1t141.5 -7.5t113.5 -13.5q16 -4 36.5 -15t18.5 -30q-4 -14 -10 -26.5t-20 -14.5h-12.5t-21.5 1t-21.5 2t-12.5 1q-76 8 -180.5 13.5t-208 6.5t-191.5 -1t-127 -4 q-45 -4 -95 -6.5t-93 -0.5q-51 0 -98 5q-27 -2 -39.5 8t-16.5 30zM102 852q-8 14 3.5 34.5t25.5 20.5h30.5t74 1t99.5 2t107.5 2t101.5 3.5t79 4.5q41 2 114.5 4t158.5 -1t172 -9.5t157 -18.5q16 -4 25.5 -17.5t6.5 -31.5q-9 -31 -38 -35q-4 -2 -6.5 -1t-6.5 1 q-125 23 -242.5 24t-205.5 3q-23 -2 -58.5 -4.5t-81 -3.5t-94.5 -2t-96 -1q-113 -2 -240 0q-74 -10 -86 25z" />
<glyph unicode="?" horiz-adv-x="1204" d="M238 70.5q0 25.5 7 52.5t18 51.5t28 42.5q23 29 52.5 44t57.5 7q37 -10 53.5 -28.5t22.5 -38t4 -38t-4 -26.5q-6 -23 -20.5 -47t-34 -43.5t-41 -34t-37.5 -16.5l-31 -6h-6q-39 0 -59 37q-10 18 -10 43.5zM260 479q-33 78 68 183q47 49 117.5 91t148.5 87q76 43 149.5 87 t132 95t95.5 112.5t37 139.5q-4 156 -134 186q-51 12 -111.5 6t-119.5 -24.5t-114.5 -46t-94.5 -58.5q-14 -88 -26.5 -131t-42.5 -53q-6 -4 -20.5 -3t-31.5 17q-55 55 -10 131q23 39 66 76q4 23 7 42.5t7 35.5q8 33 43 27q31 -10 25 -43q-2 -2 -2 -4q49 29 106 52 t116.5 36.5t116 16.5t105.5 -9q88 -23 134 -87.5t50 -166.5q-2 -94 -43 -167t-105.5 -131t-143 -106.5t-156.5 -91.5q-76 -41 -142.5 -81t-107.5 -83q-35 -37 -48.5 -66.5t-6.5 -43.5q4 -8 20 -13.5t39 -7.5q188 -2 260 162q4 14 18.5 19.5t26.5 1.5q33 -14 19 -48 q-87 -204 -314 -204h-10q-61 2 -88 22.5t-35 42.5zM317 57q20 4 34 16.5t20 26.5t6 23.5t-2 11.5q-6 -2 -21.5 -20.5t-25.5 -42.5q-4 -10 -11 -15z" />
<glyph unicode="@" d="M39 471q0 49 23.5 96t66.5 97.5t103.5 104.5t134.5 120q98 86 205.5 175t218 167t218 138.5t205 88t179.5 16t141 -74.5q61 -68 80.5 -143.5t12.5 -149.5t-31.5 -141.5t-52 -120.5t-51.5 -86t-26 -37q-33 -43 -114.5 -100.5t-192 -116t-237.5 -110.5t-247 -86t-222.5 -42 t-163.5 21q-18 8 -35.5 23.5t-29 40t-13.5 60t10 83.5q0 4 4 8q86 127 184.5 221t200 159.5t199.5 106.5t186 60q8 4 9 4q2 0 3 1t3 1q96 33 170 10q12 0 23 -1t22 -3q59 -8 97 -31.5t48 -58.5q0 -2 1 -3t1 -3q4 -41 -13.5 -84t-45.5 -82v-31.5t-2 -28.5v-12q-4 -31 -33 -31 q-27 0 -31 27q-8 -8 -10 -12q-51 -51 -117.5 -99.5t-137.5 -84t-138.5 -56t-120.5 -14.5q-68 16 -78 84q-6 37 7.5 86t42 102t69.5 108.5t90 102.5q-141 -53 -293.5 -167t-281.5 -302q-16 -66 0 -92.5t38 -36.5q51 -25 143.5 -15.5t204 42t231.5 82t224.5 103.5t184 108.5 t110.5 95.5l21 28q20 29 45.5 77t49 108.5t32 127t-7 133t-68.5 126.5q-219 242 -1077 -514q-68 -59 -124.5 -110.5t-97.5 -97.5t-64.5 -87t-23.5 -80q-2 -72 90 -160q104 -96 215 -133t208.5 -41t170 11.5t99.5 23.5q37 12 95 42t123.5 67.5t134.5 80.5t127 85t100 78 t57 59q18 25 41 10q12 -6 15 -19.5t-5 -23.5q-16 -29 -62.5 -68t-108 -84t-134 -90t-141 -84t-128 -68.5t-96.5 -41.5q-25 -8 -93.5 -22.5t-160.5 -14.5q-55 0 -116.5 8t-126 29.5t-130 58.5t-127.5 94q-113 102 -108 205zM707 551q4 -18 10 -24.5t16 -10.5q39 -4 96.5 13.5 t121 50t127 77.5t116.5 99q16 14 30.5 29.5t24.5 31.5q-2 49 -13 98.5t-46 75.5q-4 4 -10 7t-13 6q-65 1 -147 -13q-70 -39 -129.5 -99.5t-102.5 -125t-64.5 -122.5t-16.5 -93zM1274 983q10 -16 17 -35.5t12 -38.5q8 25 6 45q-6 19 -35 29z" />
<glyph unicode="A" horiz-adv-x="1056" d="M-119 33.5q0 13.5 10 23.5l353 389q-10 10 -11 23q-2 14 8.5 24.5t22.5 12.5q4 0 13.5 1t25.5 3l537 590l166 180q16 53 29.5 86t23.5 52.5t20.5 26.5t22.5 7h11q21 0 31 -6q13 -8 19 -19q8 -14 8 -34q0 -33 -8 -51.5t-22.5 -33t-33.5 -28t-42 -33.5 q-16 -51 -34.5 -112.5t-37.5 -126.5q-27 -88 -54.5 -187.5t-61.5 -210.5q14 2 18 -17.5t0 -25.5q0 -4 -6 -8q-4 -4 -12.5 -7t-22.5 -7q-35 -111 -74 -225.5t-84 -231.5q-6 -29 -10 -53.5t-13 -43t-25.5 -28.5t-45.5 -10q-18 6 -30.5 30.5t-13.5 51t14.5 43t52.5 6.5 q45 113 82.5 224.5t72.5 221.5q-123 -23 -238.5 -44t-189.5 -33q-88 -96 -162.5 -176t-130 -138.5t-87.5 -92.5l-33 -34q-23 -23 -48 -2q-10 10 -10 23.5zM424 530l379 68q37 117 68.5 225.5t60.5 202.5q14 61 31 111q-16 -18 -36 -39t-40 -43q-117 -135 -234.5 -268.5 t-228.5 -256.5z" />
<glyph unicode="B" horiz-adv-x="1077" d="M-86 131q-2 5 -2 10q0 7 4 13q6 12 21 16q12 4 23 -2t15 -21q6 -23 27 -36q59 104 140 247.5t164 297t158 300t122 256.5q-4 0 -6 1t-5 1q-14 2 -22 12.5t-6 22.5q2 14 12 23.5t25 7.5l26 -4q16 43 25.5 74.5t9.5 50.5q0 33 33 33q12 0 22.5 -8.5t10.5 -24.5 q0 -45 -35 -133q37 -4 73.5 -8.5t67.5 -7.5t52.5 -5t29.5 -2q29 0 37 -26q1 -2 1 -5q1 -20 -23 -66q-26 -52 -71.5 -118.5t-104 -138.5t-117.5 -127q68 -4 138 -18.5t124 -49.5q74 -57 82 -139v-4q0 -90 -42 -167t-108.5 -137.5t-149.5 -106.5t-165 -77.5t-156 -47 t-121 -15.5q-123 0 -196 25q-2 -4 -4.5 -6.5t-2.5 -4.5q-10 -16 -28 -16q-8 0 -17 4q-27 16 -10 45q0 2 1 3t1 3q-41 29 -53 76zM59 84q31 -10 71 -13t93 -3q41 0 106.5 14t141.5 43t151.5 70t137 94t100.5 119.5t39 142.5q-6 55 -55 92q-56 41 -142 51q-58 7 -111 8 q-25 0 -48 -2q-14 -10 -26.5 -17t-27.5 -13q-41 -18 -70.5 -28.5t-49.5 -8.5q-92 -170 -176.5 -317.5t-133.5 -231.5zM434 756q16 4 38 5t48 3q51 39 104.5 97.5t100.5 119.5t83 116.5t52 86.5q-41 4 -100.5 10t-108.5 10q-39 -92 -95 -208.5t-122 -239.5z" />
<glyph unicode="C" horiz-adv-x="1269" d="M109 195q-15 48 -15 105q0 60 16 131q32 138 141 300t297.5 340t467.5 354q24 12 50 13q22 0 46 -10q51 -20 76 -58q32 -43 32 -101v-9q-3 -64 -40 -119q-43 -66 -103.5 -126.5t-115 -106.5t-94.5 -75.5t-42 -31.5q-23 -12 -39 4q-23 14 -8 37q27 55 59.5 121.5t61.5 128 t49.5 106.5t24.5 55q2 4 -6.5 17.5t-18.5 25.5l-2 4q-227 -156 -388 -312.5t-256 -298.5t-127 -265q-17 -65 -17 -119q0 -49 14 -90q24 -80 94 -120q58 -33 143 -33q17 0 35 1q70 8 129.5 19.5t123 36t141 67.5t184.5 119q10 8 22.5 5t20.5 -13q18 -25 -6 -43 q-154 -109 -312.5 -181.5t-330.5 -72.5q-117 0 -197 50t-110 145zM895 936q55 47 119.5 108.5t109.5 131.5q27 39 30 83v10q0 37 -19 64q-22 37 -67 37q-10 0 -21 -2q-10 -8 -23 -15.5t-25 -15.5q10 -13 29 -43q12 -19 12 -39q0 -12 -4 -24q-4 -10 -18 -41t-34.5 -73 t-44.5 -90t-44 -91z" />
<glyph unicode="D" horiz-adv-x="1128" d="M-66 172q0 33 33 33t33 -33t10 -54.5t23.5 -33.5t28 -17.5t22.5 -5.5q76 0 153.5 5.5t170 44.5t203 122.5t253.5 241.5q304 339 304 550q0 55 -21 101q-27 61 -81 103.5t-120.5 70t-137.5 43t-128 22.5t-95 8t-40 1q-12 0 -21.5 8.5t-9.5 24.5q0 14 10.5 22.5t22.5 8.5 q6 0 49 -1t105.5 -9.5t138 -26t146.5 -48t130.5 -78.5t89.5 -118q27 -61 28 -132q0 -242 -323 -593q-125 -137 -230.5 -223t-196.5 -135t-169.5 -66.5t-146.5 -17.5q-47 0 -90 6t-75 26.5t-50.5 55.5t-18.5 94zM121 -54q-1 5 -1 10q0 9 5 15q2 2 41 63.5t98 162.5 q-12 -8 -20 -13q-29 -14 -45 15q-8 10 -4 23.5t14 21.5q33 16 56.5 26.5t45.5 40.5q25 33 47.5 64t44.5 61q59 104 120 217t114 228q27 59 53.5 111t50.5 100q27 53 53.5 108t43.5 98q-25 12 -30 21.5t-9 13.5q-2 6 -4 27.5t14 40.5q12 16 65 18q25 0 41 -24q2 -4 4.5 -17.5 t4.5 -29t2 -30.5t-2 -24q0 -4 -2 -21.5t-15.5 -58t-41 -107.5t-80 -165t-131.5 -232.5t-193 -310.5q-55 -96 -105.5 -181t-89.5 -147.5t-61.5 -99.5t-24.5 -37q-8 -14 -26 -14q-6 0 -19 4q-10 8 -14 22z" />
<glyph unicode="E" horiz-adv-x="1026" d="M-18 176q2 27 26.5 86.5t56 121.5t60.5 117.5t41 76.5l100 204q-2 4 -2 13q4 20 23 26l239 578q10 23 26 31q9 5 18 5q6 0 12 -3q25 -16 14 -46l-16 -32q31 -2 93 -3h42q43 0 91 1q71 2 139.5 9t113.5 23q12 4 24.5 -1t16.5 -19q2 -5 2 -11q0 -7 -3 -13q-5 -12 -20 -17 q-33 -10 -78 -17.5t-96 -11.5t-102 -5t-96 -1l-158 2l-197 -471q53 -4 122 -8q68 -4 136 -6q45 -1 86 -1h38q56 1 85 7q14 4 25.5 -3t15.5 -20q2 -14 -5 -25t-21 -15q-23 -4 -59 -6.5t-81 -2.5q-49 0 -102 2t-104.5 4.5t-93.5 5.5t-68 5l-103 -207q-25 -47 -55.5 -105.5 t-57 -113t-45 -97.5t-20.5 -61q-2 -12 3 -42t28 -48q18 -16 49 -16q16 0 37 4q47 10 127 24.5t163 24.5q82 10 154 15q28 2 50 2q34 0 53 -5q29 -8 22 -39q-4 -12 -15 -19t-24 -3q-10 2 -30 2t-50 -2q-60 -4 -137.5 -13.5t-157 -23t-141.5 -27.5q-25 -6 -51 -6q-57 0 -92 33 q-35 31 -45 75q-7 30 -8 50q0 10 2 18z" />
<glyph unicode="F" horiz-adv-x="1038" d="M-28 10q-2 6 -2 10q0 8 5 15q10 25 25 53q12 25 28.5 59.5t39.5 79.5l-17 -8q-6 -4 -14 -8t-19 -10q-10 -8 -23 -5t-22 13q-6 11 -6 20q0 15 17 25q10 8 19 13t20 9q16 10 28 18.5t29 31.5q35 53 65.5 101t59.5 95l108 248l-16 4q-31 6 -27 39q2 12 13.5 20.5t25.5 6.5 q2 -2 8 -2q4 -2 10.5 -2t14.5 -2l29 69q23 57 47 111.5t45 103.5q16 37 32.5 74t30.5 72q-41 10 -66.5 19t-25.5 11q-14 4 -19 17.5t1 25.5t18 17.5t25 -0.5q10 -4 24 -11q12 -4 27.5 -10t38.5 -10l6 16q-6 0 -10 4q-16 6 -28.5 26t-8.5 40q4 9 18 25q11 12 38 13q7 0 16 -1 q29 0 41 -25q4 -4 4 -10q6 -6 6 -14v-2q0 -10 -1 -19.5t-5 -21.5l-7 -45q112 -15 224 -21q29 -1 57 -2q83 0 166 12q66 10 104.5 30t40.5 20q10 8 23.5 5t21.5 -16q5 -7 5 -14q0 -4 -1 -8q-4 -12 -14 -23q-25 -20 -66.5 -33.5t-89 -22.5t-92 -13t-75.5 -4q-86 0 -164 5 t-154 21q-16 -72 -54 -178t-106 -248q43 -6 94.5 -11t101.5 -8t98 -3t85 4q14 4 24.5 -5.5t12.5 -23.5q4 -29 -29 -37q-20 -2 -43.5 -3t-50.5 -1q-78 0 -167 7t-158 18q-31 -59 -68 -127t-82 -140q-47 -102 -88 -190t-71.5 -152.5t-50.5 -102.5l-19 -38q-10 -18 -29 -18 q-10 0 -14 2q-12 6 -18 20z" />
<glyph unicode="G" horiz-adv-x="1355" d="M-61 309q0 14 14 29l70 76l34 37q43 145 121 307t178.5 301t215 238.5t229.5 121.5q25 4 48 4q41 0 75 -12q53 -18 92 -51q86 12 150 20q18 3 37 3q46 0 95 -15q66 -23 83.5 -57.5t15.5 -57.5q0 -31 -17.5 -60.5t-44 -53t-58.5 -39t-63 -15.5h-10q-44 0 -72 17 q-32 18 -54.5 47t-42 66.5t-44.5 76.5q-5 3 -13 3q-26 0 -78 -39q-66 -50 -155.5 -138t-189.5 -197.5t-190.5 -212t-158 -182.5t-91.5 -108q-10 -35 -15.5 -67t-1.5 -62q4 -41 22.5 -89t55.5 -83q25 -23 43.5 -34t36.5 -15.5t40.5 -1t57.5 9.5q94 16 183.5 65t187.5 115 q20 27 40.5 50.5t43.5 51.5q12 16 14 33t-2 23q-12 18 -56 24q-29 4 -68 4q-19 0 -41 -1q-64 -3 -142 -14t-160 -26q-14 -4 -24.5 3.5t-14.5 19.5q0 10 6.5 21.5t20.5 13.5q31 8 82 18t109.5 17.5t118.5 9.5h24q48 0 90 -6q82 10 120 11t60 -15q16 -10 21.5 -30t9.5 -42 q2 -39 -56.5 -95.5t-146.5 -115.5q-51 -80 -80.5 -143.5t-43 -110.5t-14.5 -74.5t7 -34.5q14 2 39 13.5t51.5 29t53 36t49.5 34.5q10 10 23 8t24 -14q14 -23 -6 -43q-10 -8 -37 -28.5t-59.5 -41t-67.5 -38t-62 -19.5h-7q-15 0 -30 7q-20 9 -30 26q-12 23 -12 59q0 31 8 70 q20 86 79 194q-49 -29 -90 -51t-78.5 -38.5t-77.5 -27t-89 -14.5q-37 -4 -60.5 -4t-43 6t-38 18.5t-45.5 35.5q-51 43 -75.5 106.5t-28.5 116.5v45q-16 -18 -25.5 -29.5t-15.5 -15.5l-9 -6t-10 -2q-10 -2 -21 7t-13 21zM176 575q133 150 227.5 257.5t162 184.5t114.5 127 t86 86t75 61.5t79 51.5q-18 10 -42 13q-13 1 -28 1q-12 0 -25 -1q-98 -18 -187 -94t-171 -186.5t-154.5 -242t-136.5 -258.5zM1071 1298q23 -29 36 -55t25.5 -47.5t30 -36t47.5 -16.5q20 2 42 13t40.5 26.5t29.5 35t11 35.5q0 35 -55 54q-33 10 -63 10q-18 0 -34 -3 q-44 -10 -110 -16z" />
<glyph unicode="H" horiz-adv-x="980" d="M-90 192q4 14 14 19q14 8 38 29.5t48.5 47t47 51.5t38.5 46q29 35 52.5 69.5t46.5 69.5q2 4 5 9.5t5 9.5q-23 -2 -32 -10.5t-11 -8.5q-9 -12 -27 -12t-28.5 16.5t-0.5 32.5q2 4 27 24.5t80 24.5l31 2q45 82 88 165t84 167q31 66 62.5 131.5t59 118.5t46.5 87l18 34 q23 43 38 66.5t26.5 34.5t17.5 14.5t10 3.5q10 2 23.5 0t19.5 -11q9 -9 9 -30q0 -59 -74 -215q-100 -210 -328 -553l377 55q45 72 95 157t100.5 170t96.5 164.5t80.5 142t56 100.5t24.5 42q4 10 19 12h7q11 0 21 -4q17 -12 17 -28q0 -7 -3 -15q-2 -4 -22.5 -41t-53.5 -95 t-75 -134t-89 -157t-94 -160.5t-88 -147.5l29 4q14 2 22 -7t10 -21q4 -29 -28 -39q-4 -2 -24.5 -5.5t-53.5 -5.5q-135 -217 -242.5 -398t-165.5 -329q-4 -10 -15 -17t-21 -7q-18 0 -26.5 15t-2.5 30q57 145 155.5 320t227.5 382l-387 -63q-10 -14 -19.5 -27.5t-19.5 -28.5 q-55 -98 -106.5 -184t-90.5 -150.5t-62.5 -101.5t-23.5 -39q-8 -14 -28 -14q-23 0 -30 20q-3 8 -3 14q0 10 6 17q10 16 23 37q10 16 25 41t36 55q-12 -10 -21.5 -17t-19.5 -11q-27 -14 -45 10q-4 7 -4 15q0 5 2 11z" />
<glyph unicode="I" horiz-adv-x="593" d="M-90 29q-2 7 -2 15q0 26 22 71q30 59 84 135t120.5 159t125.5 154q23 43 43.5 82t38.5 72q12 57 29.5 115.5t38 105.5t46 78t54.5 31t43 -27q12 -23 3 -58.5t-27.5 -71.5t-39 -67.5t-32.5 -46.5q-4 -4 -5 -6t-6 -6q16 0 27 -10q23 -25 0 -47q-16 -12 -58 -61.5 t-100 -117.5q-6 -10 -12 -22t-12 -25q-117 -225 -195 -353t-141 -128q-33 0 -45 29zM-14 86q23 23 50 67t58 97q-35 -49 -64.5 -92t-43.5 -72zM494 1308q8 22 19 43t22 40l2 2q10 25 38 16q6 -2 17 -12q47 50 104 50q10 0 19 -1q29 -4 43 -24q12 -17 12 -41v-7 q-2 -27 -19.5 -59.5t-44 -61t-60.5 -48t-66 -19.5h-2q-39 0 -56.5 12t-27.5 27q-10 17 -10 37q1 22 10 46zM618 1323q13 12 27 12q10 0 21 -6q4 -4 8 -12l4 4q16 23 21.5 39t5.5 22h-5q-30 0 -55 -24q-8 -8 -14 -16.5t-13 -18.5z" />
<glyph unicode="J" horiz-adv-x="972" d="M73 362q5 58 17 123q-6 39 -6 77q0 15 1 30q3 53 13 102q20 72 41 104.5t43 37.5q20 4 32.5 -4.5t18.5 -18.5q8 -10 5 -27l-10 -28q-11 -27 -23 -70t-26.5 -97t-22.5 -110q8 -53 24.5 -107.5t45 -105.5t68.5 -97t93 -81q31 82 85 207t115.5 260t121 261t100.5 210 q53 111 85 168t54 92q-86 -23 -166 -28q-53 -3 -99 -3q-22 0 -43 1q-62 2 -101 8t-43 6q-14 4 -21.5 14t-3.5 25q2 14 13.5 21t25.5 3l43 -6q43 -6 111 -7h12q63 0 142 9q87 10 177 43q16 25 40 41.5t48.5 26.5t46.5 13q14 2 24 2q7 0 13 -1q16 -2 22.5 -10t10.5 -19 q0 -8 -5 -19t-24 -22q-35 -23 -65.5 -38t-65.5 -29q-10 -16 -16 -30.5t-16 -31.5q-23 -37 -55.5 -94t-86.5 -166q-29 -59 -67.5 -140t-81.5 -172t-85 -187.5t-80 -184.5t-67.5 -161.5t-44.5 -120.5q-6 -16 -22 -21q-4 -2 -12 -2q-12 0 -21 8q-4 0 -10 7q-49 29 -87 67.5 t-66.5 80.5t-49 84t-37.5 77q0 -16 1 -29.5t3 -28.5q4 -14 -5 -25t-21 -11q-12 -4 -23.5 3t-15.5 21q-3 23 -3 51q0 23 2 49z" />
<glyph unicode="K" horiz-adv-x="1253" d="M-88 58v9q0 16 6 29q10 23 46 54.5t102 85.5q35 61 77.5 134.5t87.5 155.5t89.5 170t85.5 174q47 98 81.5 187.5t57 160t33 116.5t10.5 59q-4 12 3 23t19 16q4 1 8 1q6 -1 14 -5q10 -8 15 -21q2 -6 2 -18q0 -21 -7 -57q-11 -56 -35.5 -134t-60.5 -170t-81 -186 q-66 -135 -133.5 -264t-126.5 -230q92 72 202.5 163t227.5 202q27 29 71 69.5t98 86.5t111.5 94.5t111.5 94.5t100.5 85t74.5 65q12 12 30.5 23.5t38 21t38 15.5t28.5 8q12 2 22.5 -5t12.5 -22v-5q0 -8 -4 -15q-6 -10 -20 -15q-8 -2 -44 -18t-59 -35q-8 -6 -43 -34.5 t-86 -70.5t-110.5 -93.5t-115.5 -100.5t-103.5 -92t-69.5 -70v-616l133 139q-14 18 2 39q33 37 67.5 75t67.5 69.5t59.5 55t40.5 34.5q23 16 36.5 9t17.5 -11q6 -8 8 -16.5t-7 -25t-35 -47t-75 -84t-126 -134.5t-189 -197q-8 -8 -33 -8q-33 0 -33 32v625 q-156 -145 -284.5 -246.5t-251.5 -197.5q-43 -74 -67.5 -113t-39 -57.5t-21.5 -21.5t-14 -3q-33 0 -49 23q-10 13 -12 35z" />
<glyph unicode="L" horiz-adv-x="942" d="M-137 29q-1 2 -1 4q0 9 15 24q8 10 48 80t99.5 180.5t130 251t138.5 291.5q49 106 84 205.5t58.5 176.5t34.5 123l11 46q3 13 15 19q8 4 17 5q3 0 6 -1q11 -2 18.5 -11.5t5.5 -23.5q-25 -147 -82.5 -306t-130 -317t-153.5 -307.5t-150 -275.5q63 43 131.5 83.5 t111.5 57.5q54 21 98 21q16 -1 30 -3q54 -10 89 -48t51.5 -95t16.5 -125q31 37 69 87t66 99q-33 12 -47 38t-12 53.5t15 54t36 41t50.5 12.5t55.5 -31q23 -24 23 -60q0 -7 -1 -14q-5 -45 -31.5 -96t-65.5 -103t-78 -95t-72 -70t-45 -27q-18 0 -25.5 23.5t-8.5 58.5t-3 76 t-11 77t-29.5 60.5t-61.5 26.5q-55 -2 -117.5 -29.5t-123 -67.5t-114 -84t-90.5 -81q-16 -25 -24 -29t-16 -4q-27 0 -31 29zM694 375q-1 -4 -1 -9q0 -21 24 -40l4 -4q25 41 25 61q0 6 -3 10q-10 9 -20 9q-5 0 -11 -3q-16 -8 -18 -24z" />
<glyph unicode="M" horiz-adv-x="1187" d="M-123 0q-3 4 -3 12q0 16 14 50q20 50 62 128t99 178.5t120.5 213t127 231.5t117.5 234q54 121 86 217q28 85 28 180v24q4 29 31 33h2q23 0 37 -36q14 -38 21.5 -90t10.5 -104t3 -79q0 -45 -6 -90t-16.5 -84t-19.5 -71t-16 -48q-6 -20 -16 -51t-19.5 -65.5t-18.5 -70.5 t-13 -67q23 27 53.5 63.5t65.5 79.5t72.5 89.5t74.5 91.5q90 113 162 204t125 148t90 75q13 6 24 6q21 0 35 -22q17 -23 17 -59q-1 -30 -13 -69q-26 -85 -80.5 -184t-118 -198.5t-106.5 -169.5q-35 -61 -74.5 -127.5t-78.5 -134.5q12 -6 12 -22q-4 -25 -18 -31 q-8 -18 -23.5 -75.5t-32 -122t-34 -119t-27.5 -66.5q-49 -49 -96 -51q-37 0 -62 24q-6 6 -8 11q-8 16 4 56t55 124t122 220t204 347q39 63 76 124t67.5 115t55 97t36.5 72q43 78 57.5 123t14.5 61q-14 -12 -50 -54t-84 -99.5t-101.5 -123t-100.5 -124.5q-115 -141 -180 -220 t-99 -117t-46.5 -45t-24.5 -5q-20 4 -29 24q-6 16 -6 44t8.5 71t24.5 103.5t43 144.5q6 14 15.5 42.5t17.5 65.5t13 80t5 84q2 16 3 31.5t-1 32.5q-18 -53 -39.5 -115t-54.5 -127q-49 -104 -108.5 -219t-121 -225.5t-118.5 -211t-102.5 -177t-74 -122t-28.5 -47.5 q-4 -14 -17.5 -17t-25.5 1zM530 16h5q20 0 45 29q12 16 18 42t10 52.5t9.5 50t15.5 35.5q-39 -72 -68 -128t-35 -81z" />
<glyph unicode="N" horiz-adv-x="1206" d="M-152 28q-2 5 -1 10q0 9 6 15q72 121 156.5 263.5t168.5 288t163 282.5t139.5 247.5t98 185.5t42.5 93q2 6 5 19.5t19 17.5q10 6 20.5 3t18.5 -9q10 -8 18 -60q7 -52 9 -130q1 -39 1 -84q0 -46 -1 -96q-2 -102 -12.5 -209t-28 -216.5t-43.5 -206.5q-12 -49 -24.5 -92 t-22.5 -80q57 98 128.5 216t143.5 245q57 119 107.5 232.5t90.5 208t68.5 164t42.5 102.5q57 143 123 149q10 0 22 1h5q10 0 19 -3q11 -4 17.5 -14t6.5 -29q0 -12 -6.5 -28.5t-24.5 -24.5q-53 -117 -97 -206t-87 -169t-88 -163t-101 -189q-51 -109 -104 -218.5t-97 -199.5 t-73 -151.5t-33 -69.5q-4 -12 -16.5 -16.5t-28.5 -0.5q-14 6 -18 23q-39 -63 -61.5 -99t-24.5 -38q-9 -17 -27 -17q-3 -1 -6 -1q-6 0 -12 3q-31 14 -21 43l8 24q8 24 24.5 76t40 136t56.5 205q31 109 47.5 224.5t24.5 225t9 204.5v60q0 57 -1 103q-41 -78 -102.5 -189.5 t-133 -236.5t-146.5 -254t-142.5 -242.5t-119.5 -203t-79 -134.5q-8 -12 -21.5 -17t-25.5 3q-15 10 -19 24z" />
<glyph unicode="O" horiz-adv-x="1040" d="M4 207q-1 10 -1 22q-1 35 9 77q12 56 35 124q-27 72 -28 144v10q-1 66 13 122q14 60 37 100t44 50q12 6 26.5 6t24.5 -10q6 -10 9 -19.5t-5 -17.5q-4 -10 -18.5 -27.5t-27.5 -47.5q-14 -28 -24 -76q-9 -40 -8 -95v-22q33 66 79 176.5t109.5 232t145.5 238.5t186 195 q39 31 77 45t72 18q15 2 30 2q19 0 35 -3q30 -5 53 -13q55 -18 89.5 -66.5t54 -108t25.5 -121.5q2 -24 1 -46q0 -36 -5 -68q-14 -90 -59 -196.5t-110.5 -216t-145.5 -214t-164 -189.5t-165.5 -143.5t-149.5 -76.5q-27 -6 -55 -6q-10 0 -21 1q-39 3 -66 17q-39 25 -67.5 73 t-34.5 130zM70 209q2 -66 32.5 -102.5t53.5 -51.5q18 -9 41 -9q28 0 65 13q49 18 111.5 67.5t130 118t136.5 152.5t130 175.5t111.5 185.5t79.5 180q-39 -66 -90.5 -145.5t-111 -159.5t-127 -155t-140.5 -126q-74 -50 -152 -74q-40 -12 -81 -13q-38 0 -77 11 q-33 6 -53.5 17.5t-38.5 40.5q-16 -42 -20 -68q-2 -13 -2 -27t2 -30zM113 430q23 -35 47 -60.5t59 -35.5q19 -5 39 -5q41 -1 88 19q70 28 142.5 86t144.5 137.5t133 165.5t108.5 173t69.5 159q11 38 11 79q0 30 -6 62q-15 76 -56 117q-46 42 -98 42q-9 0 -17 -1 q-62 -8 -127 -58t-129.5 -130t-124 -173.5t-110.5 -189.5t-90 -178t-60.5 -138.5t-23.5 -70.5z" />
<glyph unicode="P" horiz-adv-x="1030" d="M-47 49q2 2 43 75t103.5 189.5t137 261t142.5 287.5q-18 25 2 45q8 10 22 11q59 129 92 227t46 158q-16 8 -26.5 16t-18.5 16q-23 23 -22 46.5t18 39.5q18 17 48 19h5q26 0 49 -23q17 -13 17 -56q0 -8 -1 -18q27 -8 65 -12q15 -2 33 -2q26 0 57 4q52 6 117.5 24.5 t149.5 53.5q25 10 52.5 1t50.5 -40q53 -70 60 -144q2 -16 1 -33q0 -57 -20 -115q-26 -74 -75.5 -141t-109 -118t-122 -81.5t-111.5 -32.5h-14q-38 0 -77 9q-46 11 -89 29.5t-81 39t-65 38.5q-70 -143 -143.5 -286.5t-135 -258t-101.5 -187.5l-40 -73q-10 -18 -28 -18 q-8 0 -17 4q-19 12 -19 28q0 8 5 17zM461 883q23 -16 57.5 -36t74.5 -37q40 -18 83 -30q37 -11 71 -10h11q27 0 73 26.5t95 69.5t95 100q45 56 73 118q29 65 29 131q0 63 -40 120q-17 17 -23 17h-1q-171 -72 -281 -82q-39 -4 -73 -4q-61 0 -103 12q-10 -45 -25.5 -97.5 t-35 -104.5t-41 -102t-39.5 -91z" />
<glyph unicode="Q" horiz-adv-x="974" d="M4 207q0 152 53.5 319.5t135 324.5t183 288t199.5 209q100 80 195 83h11q87 0 153 -43q70 -47 106 -132q23 -56 23 -118q0 -31 -6 -63q-18 -92 -68.5 -207.5t-122 -234.5t-157.5 -233.5t-174 -204.5l108 -89q18 35 48 73t61.5 71t59.5 57.5t44 36.5q14 8 27.5 10t21.5 -6 q23 -20 2 -41q-12 -10 -39.5 -36.5t-60.5 -64.5t-67.5 -85t-59.5 -96q-6 -10 -21 -17h-4q-6 -2 -15 1t-13 7l-162 113q-59 -53 -114.5 -89t-102.5 -48q-27 -6 -55 -6q-10 0 -21 1q-39 3 -66 17q-39 25 -70.5 73t-31.5 130zM74 188q25 -72 72 -110q27 -21 63 -21q25 0 55 11 q66 27 148 102q-12 16 -14.5 36.5t5 35t23.5 18.5t43 -12l12 -10q72 76 148 174t144.5 206.5t124.5 223t91 223.5q-16 -33 -32.5 -47t-29 -16.5t-18.5 5t-6 17.5q0 20 8.5 28.5t17.5 16.5t18 21.5t16 42.5q4 27 1 58.5t-15.5 61t-32 53t-46.5 33.5q-40 15 -80 15 q-37 0 -74 -14q-77 -27 -150.5 -92.5t-141.5 -162t-126 -204t-104.5 -218t-76 -207t-41.5 -168.5q-7 -38 -7 -64q0 -22 5 -36z" />
<glyph unicode="R" horiz-adv-x="1177" d="M1 28q-1 4 -1 8q0 10 6 19q2 0 43 65.5t104.5 173t139.5 244t147 279.5q-8 -2 -18 -2q-4 0 -8 -2q-23 -8 -37 16q-12 16 2 39q66 86 105.5 124t62.5 50q29 66 50 124.5t38 107.5q-33 0 -52.5 2t-29.5 4q-14 4 -24.5 15.5t-8.5 25.5q2 12 9.5 23.5t23.5 11.5q43 0 64.5 -4 t39.5 -4q14 45 21.5 85t7.5 50q-4 14 5 29.5t24 19.5q5 1 9 1q8 0 16 -5q12 -8 16 -23q4 -16 -4 -58t-23 -97q70 6 139.5 12t126 11t93 8t45.5 3q12 0 27.5 -6t19.5 -18q8 -16 2 -40t-18.5 -49.5t-29 -49t-30.5 -41.5q-39 -47 -89 -96.5t-105.5 -92.5t-111 -74.5 t-102.5 -44.5q-14 -4 -26.5 -6t-26.5 -6q8 -76 18.5 -173t20.5 -196.5t19.5 -190.5t15.5 -153q41 51 99 123t118.5 141.5t115 125t87.5 73.5q12 8 26.5 4t20.5 -14q5 -9 5 -17q0 -5 -2 -11q-5 -14 -18 -23q-27 -14 -80 -70.5t-117.5 -131.5t-132 -159t-120.5 -153 q-11 -15 -29 -15q-14 2 -23.5 12.5t-9.5 22.5q-10 92 -20 199.5t-21.5 214t-21.5 205t-19 172.5l-47 -10q-74 -152 -154.5 -297.5t-149 -261t-113.5 -187.5t-48 -74q-8 -14 -21 -15h-4l-22 5q-12 8 -15 22zM616 1030l9 -16l12 -84q10 4 21.5 5t21.5 5q37 8 84 37t98 67.5 t100.5 85t88.5 93.5q23 25 36 48t19 40q-27 -2 -69 -5t-94 -7.5t-112.5 -9.5t-121.5 -9q-16 -57 -40 -120.5t-53 -129.5z" />
<glyph unicode="S" horiz-adv-x="1132" d="M-23 119v6q0 55 34 115q36 62 77 104q46 45 79 45q9 0 17 -4q10 -4 20.5 -14.5t10.5 -36.5q0 -14 -10 -23.5t-23 -9.5q-20 0 -28 14q-4 -4 -8.5 -8t-12.5 -10q-41 -41 -65.5 -90t-24.5 -88q0 -29 20 -49q8 -6 48.5 -4t121.5 32q94 35 198 94.5t193 127t151.5 138 t74.5 130.5q5 23 5 39q0 21 -9 30q-16 16 -60.5 13.5t-80.5 -8.5q-2 0 -32 -5.5t-73 -12.5t-92 -14t-92 -12q-72 -12 -128 -12q-130 0 -169 64q-16 26 -16 57q0 62 61 147q45 63 117.5 133t163 136.5t190.5 125t201 98.5q100 39 193 57q47 9 89 9q41 0 78 -8q18 -6 36.5 -14 t35 -19.5t28 -25.5t13.5 -35v-6q-1 -42 -49 -83q-52 -44 -170 -103q-83 -40 -135 -40q-34 0 -56 17q-10 8 -21.5 27.5t-0.5 58.5q10 35 34.5 75t59.5 71q-102 -29 -215 -86.5t-216.5 -129t-188.5 -149.5t-134 -147q-49 -68 -49 -107q0 -14 6 -24q4 -6 16 -15q12 -8 38 -13 q22 -4 55 -4h14q43 1 111 11q43 4 92 11t92 14.5t72 12.5l30 5q54 8 110 9h2q54 0 89 -36q25 -28 25 -74q0 -25 -7 -55q-16 -74 -85.5 -152.5t-166 -152t-205 -134t-200.5 -95.5q-99 -37 -162 -37q-47 0 -71 18q-45 39 -46 101zM940 1165q4 -3 13 -3q4 0 10 1q14 2 37.5 9.5 t60.5 25.5q68 33 105.5 57.5t54 40t19.5 23.5l3 8q0 4 -8 10q-12 10 -57 25q-23 6 -45 6q2 -2 2 -4q14 -27 -3.5 -54.5t-33.5 -43.5q-10 -10 -22.5 -10.5t-22.5 10.5q-10 8 -10.5 22.5t8.5 24.5q4 2 6 4l6 6h-10q-25 -6 -57.5 -42t-49.5 -77q-7 -16 -7 -25z" />
<glyph unicode="T" horiz-adv-x="1347" d="M285 1382q5 30 31 46q10 6 20 6q16 0 31 -15q14 -10 9 -34.5t-22 -24.5q27 -31 76 -46q48 -14 106 -18q33 -2 67 -2q25 0 51 1q60 3 108 8q12 0 17 3t13.5 6t22.5 7t43 8q7 1 14 1q26 0 52 -12q32 -16 41 -20h15q28 0 54 6q34 8 107 13q59 6 117.5 11t111.5 8q32 2 60 2 q19 0 37 -1q44 -2 75 -8q29 -5 29 -35v-8q-2 -14 -15.5 -21.5t-29.5 -2.5q-27 6 -70 6t-94 -3t-107.5 -8.5t-107.5 -11.5q-47 -4 -89 -8t-77 -6q13 -43 19 -123q1 -11 1 -24q0 -74 -28 -179q-18 -57 -42 -106t-53.5 -97.5t-63.5 -95.5t-71 -98q-33 -47 -56 -80t-40.5 -59.5 t-31 -47t-25.5 -38.5q-47 -70 -92 -136.5t-103 -132.5q-12 -12 -26 -12q-23 0 -31 19.5t2 35.5l287 508q43 84 90 170t84 171t57 167q13 50 13 98q0 30 -5 60l-51 -4q-16 -16 -20 -31q-2 -8 -2 -12q4 -31 -29 -35q-16 -2 -26.5 6t-12.5 21q0 4 -1 16t5 31q-29 -2 -58.5 -3 t-58.5 -1q-92 0 -174 15t-123 58q-31 31 -31 75q0 8 1 17zM717 588q61 88 114.5 175t86.5 185q14 51 14 81v65q-25 -141 -88.5 -263t-126.5 -243z" />
<glyph unicode="U" horiz-adv-x="1251" d="M-86 35q0 16 8 22q14 10 45 58.5t73 119t90 157.5t97 175q66 113 131.5 228.5t128.5 224.5q59 96 100.5 168t69.5 123q33 57 54 102q6 12 18 17.5t25 -3.5q12 -4 16 -16t-2 -25q0 -2 -53 -103t-172 -298q-63 -106 -129 -222t-131 -228q-63 -113 -113.5 -203t-91.5 -156 q74 57 131 97t115 40q86 0 149.5 -46t114.5 -107q25 -33 45 -50.5t43 -21.5q16 10 40.5 51t55.5 103q25 51 49.5 110.5t52.5 124.5q29 68 60 137.5t65 141.5q23 47 44.5 92t43.5 88q18 59 35 114.5t33 102.5q33 96 50.5 149.5t26.5 80t13 33.5t8 11q15 15 33 15q9 0 19 -4 q23 -8 37 -36t14 -50q0 -6 -2 -13.5t-13.5 -31t-34 -68.5t-61.5 -125q-23 -45 -47 -97t-53 -106q-45 -139 -87 -262t-79 -219t-66.5 -161.5t-50.5 -86.5q-10 -10 -23.5 -10t-21.5 10q-2 0 -2 2q-10 -20 -26.5 -47.5t-34 -52.5t-36 -42t-34.5 -19q-27 -2 -47.5 6t-36.5 21 t-31.5 31.5t-29.5 37.5q-33 41 -87.5 77.5t-127.5 53.5q-33 0 -72 -21.5t-79 -52.5t-78 -63.5t-66 -57.5q-35 -31 -52.5 -43t-29.5 -12q-6 0 -15 4q-18 10 -18 31z" />
<glyph unicode="V" horiz-adv-x="1200" d="M365 1223q0 49 18 84.5t47 35.5q18 0 31 -18q6 -10 6 -22q6 -25 9 -91.5t7 -177.5q6 -18 24.5 -40.5t24.5 -32.5q8 -14 -12 -25.5t-31 -15.5v-21q2 -94 5.5 -195.5t5.5 -199.5t4 -189.5t4 -164.5q25 41 57.5 93t71.5 111q57 88 124.5 187.5t138.5 202t140.5 203 t133 189.5t116.5 161.5t90 121.5q8 13 22 15h4q10 0 19 -9q9 -8 13 -21l2 -8q0 -9 -6 -16q-37 -49 -91.5 -121.5t-117 -161.5t-132 -189.5t-139 -202t-136 -200.5t-124.5 -186q-43 -63 -77.5 -117.5t-59.5 -95t-39 -65.5l-14 -25q-7 -16 -27 -16h-12q-23 8 -23 31 q-2 115 -4 242.5t-5 255.5t-7 250t-6 222q-10 27 -19.5 58t-17.5 61.5t-13 57t-5 45.5z" />
<glyph unicode="W" horiz-adv-x="1497" d="M51 34q2 14 21 38q10 29 28.5 88t40 134t44 159t43 160.5t36 140t21.5 96.5q8 49 9 94v29q0 28 -1 52q-2 36 -6 57l-4 22q-4 10 4 21.5t20 15.5q10 2 20.5 -4.5t14.5 -20.5q0 -2 4 -25.5t7 -61.5q2 -23 1 -50v-38q-2 -50 -12 -103q-10 -55 -38 -166t-66 -258 q-18 -70 -34 -123t-28 -94q10 10 18.5 20t18.5 21q57 61 121.5 138t136.5 156q78 96 149.5 197.5t131.5 188.5q43 61 71.5 101t48 63.5t31.5 32.5t23 11q20 2 32 -10q32 -32 32 -85q0 -51 -32 -138q-32 -90 -98.5 -227.5t-173.5 -337.5q-55 -104 -89 -178t-51.5 -121 t-18.5 -75t12 -40q7 -5 17 -5q22 -1 58 25q52 36 127 144q14 23 46 64.5t73 98t92.5 123t106.5 138.5q23 39 51.5 82t58.5 88q47 72 100.5 152.5t105.5 161.5t102.5 157t90.5 134t66.5 96t32.5 44q18 18 36 18q5 1 11 -1q24 -6 33 -19q14 -15 14 -38q0 -33 -30 -81 q-12 -23 -131 -180.5t-324 -429.5q-43 -55 -85 -111.5t-85 -109.5q-49 -76 -94 -146.5t-84 -132t-70 -112.5t-51 -88q16 -16 8 -37q-10 -23 -31.5 -40.5t-50.5 -12.5q-23 4 -25.5 21t5.5 30q-51 -51 -96 -75t-80 -24q-47 2 -62 43q-4 15 -4 34q0 52 28 135q38 114 134 298 q159 303 233 467q63 138 62 202q0 12 -2 22q-23 -25 -54.5 -70t-66.5 -96q-59 -88 -132 -189.5t-155 -199.5q-72 -82 -137.5 -157t-118.5 -140q-43 -51 -82 -93.5t-56 -64.5q-12 -29 -20 -34t-20 -5q-18 0 -29 12q-5 6 -5 15q0 4 1 7zM1616 1241q27 35 43 58.5t20 29.5 q7 9 9 17q-12 -18 -31 -45t-41 -60z" />
<glyph unicode="X" horiz-adv-x="1193" d="M160 146q48 74 141 208l250 367q-33 102 -64.5 199.5t-57.5 177.5t-45 137t-28 82q-2 6 -6 17.5t-8 23.5t-6 24.5t-2 18.5t6 15q6 8 14 14q5 4 12 4q4 0 8 -1q12 -3 23 -22q55 -127 110.5 -284.5t104.5 -319.5q63 94 127 184t120 171t103.5 146.5t81.5 110.5q8 13 22 15 h4q11 0 20 -9q10 -8 13 -21q1 -4 1 -7q0 -9 -6 -17q-37 -47 -88.5 -117.5t-111.5 -155.5t-128 -181.5t-135 -194.5q33 -113 62.5 -217t52 -189t39 -145.5t24.5 -85.5q4 -16 16.5 -16t36.5 31q10 12 22.5 13t22.5 -9t10.5 -25.5t-6.5 -28.5q-29 -57 -88 -59h-16q-20 0 -23 4 q-4 6 -12 21q-2 2 -19.5 56t-45 140t-63.5 196.5t-73 227.5q-59 -86 -114 -169t-103 -157q-43 -63 -77.5 -117.5t-59 -95t-39.5 -65.5l-14 -25q-7 -16 -27 -16h-12q-9 4 -17 12q-6 6 -6 15q0 36 54 119z" />
<glyph unicode="Y" horiz-adv-x="1024" d="M262 80q14 47 47 105.5t78 119t85 110.5t67.5 82.5t25.5 32.5q8 8 23 9q16 66 24.5 129t30.5 120q-14 -2 -28 -2q-47 0 -89 22q-53 28 -91 76t-57 108q-18 53 -18 104v10q0 4 1 46t7.5 92t17.5 94t34 53q23 10 41 -9q12 -12 21.5 -33.5t15.5 -44t10 -42t4 -27.5 q4 -14 -5 -25.5t-26 -13.5q-14 -2 -21 3t-10.5 14.5t-5.5 19.5t-4 18q-8 -53 -12 -109q-1 -18 -1 -35q0 -38 6 -74q9 -52 37 -94t83 -67q35 -15 72 -15q39 0 80 17q61 27 145 88.5t167 139.5t151.5 162t99.5 153q6 14 20 19q7 3 14 3t13 -3q14 -6 18 -20q2 -6 2 -12.5 t-2 -12.5q-25 -53 -69.5 -113.5t-103 -122t-123 -121t-125 -108.5t-111.5 -84t-84 -49q-35 -190 -85 -334t-103.5 -241t-104.5 -150.5t-86 -65.5q-10 -4 -17.5 -4h-13.5q-12 0 -20 4t-15 8q-14 14 -14 39q0 14 4 31zM338 80q35 23 89.5 93.5t109.5 213.5q-25 -35 -54.5 -75 t-57.5 -81t-50.5 -80.5t-36.5 -70.5z" />
<glyph unicode="Z" horiz-adv-x="1366" d="M10 70q12 25 43 67.5t78 100t110.5 126t139.5 140.5q63 57 105 97t81 77q-39 2 -55 -5t-24.5 -16.5t-15.5 -16.5t-28 -1q-14 4 -20 15.5t-2 25.5q2 4 10 18.5t33 26.5q36 20 94 20q32 0 72 -6q86 82 172 161t164 153q72 66 139.5 122t120.5 97l12 12t14 10 q-63 -4 -141 -4t-153.5 2t-140 4t-97.5 4q-49 4 -83 19.5t-56.5 35t-32.5 38t-10 26.5q0 2 2 6t18 13q6 3 12 3h3q8 -1 14 -3q8 -2 12 -6q8 -18 27 -31q16 -12 39.5 -21.5t60.5 -13.5q47 -4 134 -7t181 -4h46q68 0 130 2q82 3 121 11q29 4 39 -18q5 -13 5 -19q0 -7 -10 -19 q-11 -12 -34.5 -32t-68.5 -57q-53 -43 -120 -100.5t-138 -121.5q-72 -66 -146.5 -135t-154.5 -141q41 -10 87 -24.5t97 -32.5q12 -4 17.5 -17.5t0.5 -25.5q-6 -23 -28 -23q-72 23 -131.5 42.5t-102.5 23.5l-225 -213q-104 -100 -178 -184.5t-119 -141.5q49 37 97 70.5 t89 58.5t73 38t52 11q37 -4 78 -41t100 -98q25 -27 52.5 -54.5t54.5 -50t51.5 -37t42.5 -14.5q37 0 106.5 31t138.5 87t119 133t50 169q0 33 35 33q33 0 32 -33q0 -74 -26.5 -139.5t-70.5 -119.5t-97 -96t-107.5 -72t-101.5 -45t-78 -15q-29 0 -60.5 15t-63 41t-63.5 57.5 t-63 62.5q-37 39 -76.5 78t-62.5 43q-12 0 -41 -15.5t-64.5 -39t-70.5 -49t-59 -44.5q-86 -66 -122 -85t-59 -1q-14 12 -14 30q0 14 10 32z" />
<glyph unicode="\" horiz-adv-x="946" d="M59 1524q10 10 23.5 12t23.5 -8q14 -12 11 -31q2 -14 13 -75.5t38 -153.5t71 -208t109 -237q37 -70 72 -133t69 -117q-6 31 27 39q14 4 25.5 -4t13.5 -24q14 -74 51 -155t81 -153.5t87 -131t68 -89.5q10 -10 8 -23.5t-12 -23.5q-13 -8 -23 -8q-12 0 -22 10 q-90 88 -211 277.5t-293 503.5q-66 119 -113 243.5t-76.5 229t-40 176t-0.5 84.5z" />
<glyph unicode="a" horiz-adv-x="1056" d="M-119 33.5q0 13.5 10 23.5l353 389q-10 10 -11 23q-2 14 8.5 24.5t22.5 12.5q4 0 13.5 1t25.5 3l537 590l166 180q16 53 29.5 86t23.5 52.5t20.5 26.5t22.5 7h11q21 0 31 -6q13 -8 19 -19q8 -14 8 -34q0 -33 -8 -51.5t-22.5 -33t-33.5 -28t-42 -33.5 q-16 -51 -34.5 -112.5t-37.5 -126.5q-27 -88 -54.5 -187.5t-61.5 -210.5q14 2 18 -17.5t0 -25.5q0 -4 -6 -8q-4 -4 -12.5 -7t-22.5 -7q-35 -111 -74 -225.5t-84 -231.5q-6 -29 -10 -53.5t-13 -43t-25.5 -28.5t-45.5 -10q-18 6 -30.5 30.5t-13.5 51t14.5 43t52.5 6.5 q45 113 82.5 224.5t72.5 221.5q-123 -23 -238.5 -44t-189.5 -33q-88 -96 -162.5 -176t-130 -138.5t-87.5 -92.5l-33 -34q-23 -23 -48 -2q-10 10 -10 23.5zM424 530l379 68q37 117 68.5 225.5t60.5 202.5q14 61 31 111q-16 -18 -36 -39t-40 -43q-117 -135 -234.5 -268.5 t-228.5 -256.5z" />
<glyph unicode="b" horiz-adv-x="1077" d="M-86 131q-2 5 -2 10q0 7 4 13q6 12 21 16q12 4 23 -2t15 -21q6 -23 27 -36q59 104 140 247.5t164 297t158 300t122 256.5q-4 0 -6 1t-5 1q-14 2 -22 12.5t-6 22.5q2 14 12 23.5t25 7.5l26 -4q16 43 25.5 74.5t9.5 50.5q0 33 33 33q12 0 22.5 -8.5t10.5 -24.5 q0 -45 -35 -133q37 -4 73.5 -8.5t67.5 -7.5t52.5 -5t29.5 -2q29 0 37 -26q1 -2 1 -5q1 -20 -23 -66q-26 -52 -71.5 -118.5t-104 -138.5t-117.5 -127q68 -4 138 -18.5t124 -49.5q74 -57 82 -139v-4q0 -90 -42 -167t-108.5 -137.5t-149.5 -106.5t-165 -77.5t-156 -47 t-121 -15.5q-123 0 -196 25q-2 -4 -4.5 -6.5t-2.5 -4.5q-10 -16 -28 -16q-8 0 -17 4q-27 16 -10 45q0 2 1 3t1 3q-41 29 -53 76zM59 84q31 -10 71 -13t93 -3q41 0 106.5 14t141.5 43t151.5 70t137 94t100.5 119.5t39 142.5q-6 55 -55 92q-56 41 -142 51q-58 7 -111 8 q-25 0 -48 -2q-14 -10 -26.5 -17t-27.5 -13q-41 -18 -70.5 -28.5t-49.5 -8.5q-92 -170 -176.5 -317.5t-133.5 -231.5zM434 756q16 4 38 5t48 3q51 39 104.5 97.5t100.5 119.5t83 116.5t52 86.5q-41 4 -100.5 10t-108.5 10q-39 -92 -95 -208.5t-122 -239.5z" />
<glyph unicode="c" horiz-adv-x="1269" d="M109 195q-15 48 -15 105q0 60 16 131q32 138 141 300t297.5 340t467.5 354q24 12 50 13q22 0 46 -10q51 -20 76 -58q32 -43 32 -101v-9q-3 -64 -40 -119q-43 -66 -103.5 -126.5t-115 -106.5t-94.5 -75.5t-42 -31.5q-23 -12 -39 4q-23 14 -8 37q27 55 59.5 121.5t61.5 128 t49.5 106.5t24.5 55q2 4 -6.5 17.5t-18.5 25.5l-2 4q-227 -156 -388 -312.5t-256 -298.5t-127 -265q-17 -65 -17 -119q0 -49 14 -90q24 -80 94 -120q58 -33 143 -33q17 0 35 1q70 8 129.5 19.5t123 36t141 67.5t184.5 119q10 8 22.5 5t20.5 -13q18 -25 -6 -43 q-154 -109 -312.5 -181.5t-330.5 -72.5q-117 0 -197 50t-110 145zM895 936q55 47 119.5 108.5t109.5 131.5q27 39 30 83v10q0 37 -19 64q-22 37 -67 37q-10 0 -21 -2q-10 -8 -23 -15.5t-25 -15.5q10 -13 29 -43q12 -19 12 -39q0 -12 -4 -24q-4 -10 -18 -41t-34.5 -73 t-44.5 -90t-44 -91z" />
<glyph unicode="d" horiz-adv-x="1128" d="M-66 172q0 33 33 33t33 -33t10 -54.5t23.5 -33.5t28 -17.5t22.5 -5.5q76 0 153.5 5.5t170 44.5t203 122.5t253.5 241.5q304 339 304 550q0 55 -21 101q-27 61 -81 103.5t-120.5 70t-137.5 43t-128 22.5t-95 8t-40 1q-12 0 -21.5 8.5t-9.5 24.5q0 14 10.5 22.5t22.5 8.5 q6 0 49 -1t105.5 -9.5t138 -26t146.5 -48t130.5 -78.5t89.5 -118q27 -61 28 -132q0 -242 -323 -593q-125 -137 -230.5 -223t-196.5 -135t-169.5 -66.5t-146.5 -17.5q-47 0 -90 6t-75 26.5t-50.5 55.5t-18.5 94zM121 -54q-1 5 -1 10q0 9 5 15q2 2 41 63.5t98 162.5 q-12 -8 -20 -13q-29 -14 -45 15q-8 10 -4 23.5t14 21.5q33 16 56.5 26.5t45.5 40.5q25 33 47.5 64t44.5 61q59 104 120 217t114 228q27 59 53.5 111t50.5 100q27 53 53.5 108t43.5 98q-25 12 -30 21.5t-9 13.5q-2 6 -4 27.5t14 40.5q12 16 65 18q25 0 41 -24q2 -4 4.5 -17.5 t4.5 -29t2 -30.5t-2 -24q0 -4 -2 -21.5t-15.5 -58t-41 -107.5t-80 -165t-131.5 -232.5t-193 -310.5q-55 -96 -105.5 -181t-89.5 -147.5t-61.5 -99.5t-24.5 -37q-8 -14 -26 -14q-6 0 -19 4q-10 8 -14 22z" />
<glyph unicode="e" horiz-adv-x="1026" d="M-18 176q2 27 26.5 86.5t56 121.5t60.5 117.5t41 76.5l100 204q-2 4 -2 13q4 20 23 26l239 578q10 23 26 31q9 5 18 5q6 0 12 -3q25 -16 14 -46l-16 -32q31 -2 93 -3h42q43 0 91 1q71 2 139.5 9t113.5 23q12 4 24.5 -1t16.5 -19q2 -5 2 -11q0 -7 -3 -13q-5 -12 -20 -17 q-33 -10 -78 -17.5t-96 -11.5t-102 -5t-96 -1l-158 2l-197 -471q53 -4 122 -8q68 -4 136 -6q45 -1 86 -1h38q56 1 85 7q14 4 25.5 -3t15.5 -20q2 -14 -5 -25t-21 -15q-23 -4 -59 -6.5t-81 -2.5q-49 0 -102 2t-104.5 4.5t-93.5 5.5t-68 5l-103 -207q-25 -47 -55.5 -105.5 t-57 -113t-45 -97.5t-20.5 -61q-2 -12 3 -42t28 -48q18 -16 49 -16q16 0 37 4q47 10 127 24.5t163 24.5q82 10 154 15q28 2 50 2q34 0 53 -5q29 -8 22 -39q-4 -12 -15 -19t-24 -3q-10 2 -30 2t-50 -2q-60 -4 -137.5 -13.5t-157 -23t-141.5 -27.5q-25 -6 -51 -6q-57 0 -92 33 q-35 31 -45 75q-7 30 -8 50q0 10 2 18z" />
<glyph unicode="f" horiz-adv-x="1038" d="M-28 10q-2 5 -2 10q0 8 5 15q10 25 25 53q12 25 28.5 59.5t39.5 79.5l-17 -8q-6 -4 -14 -8t-19 -10q-10 -8 -23 -5t-22 13q-6 11 -6 20q0 15 17 25q10 8 19 13t20 9q16 10 28 18.5t29 31.5q35 53 65.5 101t59.5 95l108 248l-16 4q-31 6 -27 39q2 12 13.5 20.5t25.5 6.5 q2 -2 8 -2q4 -2 10.5 -2t14.5 -2l29 69q23 57 47 111.5t45 103.5q16 37 32.5 74t30.5 72q-41 10 -66.5 19t-25.5 11q-14 4 -19 17.5t1 25.5t18 17.5t25 -0.5q10 -4 24 -11q12 -4 27.5 -10t38.5 -10l6 16q-6 0 -10 4q-16 6 -28.5 26t-8.5 40q4 10 18 25q10 13 38 13 q8 0 16 -1q29 0 41 -25q4 -4 4 -10q6 -6 6 -14v-2q0 -10 -1 -19.5t-5 -21.5l-7 -45q111 -16 224 -21q28 -2 57 -2q83 0 166 12q66 10 104.5 30t40.5 20q10 8 23.5 5t21.5 -16q5 -7 5 -14q0 -4 -1 -8q-4 -12 -14 -23q-25 -20 -66.5 -33.5t-89 -22.5t-92 -13t-75.5 -4 q-86 0 -164 5t-154 21q-16 -72 -54 -178t-106 -248q43 -6 94.5 -11t101.5 -8t98 -3t85 4q14 4 24.5 -5.5t12.5 -23.5q4 -29 -29 -37q-20 -2 -43.5 -3t-50.5 -1q-78 0 -167 7t-158 18q-31 -59 -68 -127t-82 -140q-47 -102 -88 -190t-71.5 -152.5t-50.5 -102.5l-19 -38 q-10 -18 -29 -18q-10 0 -14 2q-12 6 -18 20z" />
<glyph unicode="g" horiz-adv-x="1355" d="M-61 309q0 14 14 29l70 76l34 37q43 145 121 307t178.5 301t215 238.5t229.5 121.5q25 4 48 4q41 0 75 -12q53 -18 92 -51q86 12 150 20q18 3 37 3q46 0 95 -15q66 -23 83.5 -57.5t15.5 -57.5q0 -31 -17.5 -60.5t-44 -53t-58.5 -39t-63 -15.5h-10q-44 0 -72 17 q-32 18 -54.5 47t-42 66.5t-44.5 76.5q-5 3 -13 3q-26 0 -78 -39q-66 -50 -155.5 -138t-189.5 -197.5t-190.5 -212t-158 -182.5t-91.5 -108q-10 -35 -15.5 -67t-1.5 -62q4 -41 22.5 -89t55.5 -83q25 -23 43.5 -34t36.5 -15.5t40.5 -1t57.5 9.5q94 16 183.5 65t187.5 115 q20 27 40.5 50.5t43.5 51.5q12 16 14 33t-2 23q-12 18 -56 24q-29 4 -68 4q-19 0 -41 -1q-64 -3 -142 -14t-160 -26q-14 -4 -24.5 3.5t-14.5 19.5q0 10 6.5 21.5t20.5 13.5q31 8 82 18t109.5 17.5t118.5 9.5h24q48 0 90 -6q82 10 120 11t60 -15q16 -10 21.5 -30t9.5 -42 q2 -39 -56.5 -95.5t-146.5 -115.5q-51 -80 -80.5 -143.5t-43 -110.5t-14.5 -74.5t7 -34.5q14 2 39 13.5t51.5 29t53 36t49.5 34.5q10 10 23 8t24 -14q14 -23 -6 -43q-10 -8 -37 -28.5t-59.5 -41t-67.5 -38t-62 -19.5h-7q-15 0 -30 7q-20 9 -30 26q-12 23 -12 59q0 31 8 70 q20 86 79 194q-49 -29 -90 -51t-78.5 -38.5t-77.5 -27t-89 -14.5q-37 -4 -60.5 -4t-43 6t-38 18.5t-45.5 35.5q-51 43 -75.5 106.5t-28.5 116.5v45q-16 -18 -25.5 -29.5t-15.5 -15.5l-9 -6t-10 -2q-10 -2 -21 7t-13 21zM176 575q133 150 227.5 257.5t162 184.5t114.5 127 t86 86t75 61.5t79 51.5q-18 10 -42 13q-13 1 -28 1q-12 0 -25 -1q-98 -18 -187 -94t-171 -186.5t-154.5 -242t-136.5 -258.5zM1071 1298q23 -29 36 -55t25.5 -47.5t30 -36t47.5 -16.5q20 2 42 13t40.5 26.5t29.5 35t11 35.5q0 35 -55 54q-33 10 -63 10q-18 0 -34 -3 q-44 -10 -110 -16z" />
<glyph unicode="h" horiz-adv-x="980" d="M-90 192q4 14 14 19q14 8 38 29.5t48.5 47t47 51.5t38.5 46q29 35 52.5 69.5t46.5 69.5q2 4 5 9.5t5 9.5q-23 -2 -32 -10.5t-11 -8.5q-9 -12 -27 -12t-28.5 16.5t-0.5 32.5q2 4 27 24.5t80 24.5l31 2q45 82 88 165t84 167q31 66 62.5 131.5t59 118.5t46.5 87l18 34 q23 43 38 66.5t26.5 34.5t17.5 14.5t10 3.5q10 2 23.5 0t19.5 -11q9 -9 9 -30q0 -59 -74 -215q-100 -210 -328 -553l377 55q45 72 95 157t100.5 170t96.5 164.5t80.5 142t56 100.5t24.5 42q4 10 19 12h7q11 0 21 -4q17 -12 17 -28q0 -7 -3 -15q-2 -4 -22.5 -41t-53.5 -95 t-75 -134t-89 -157t-94 -160.5t-88 -147.5l29 4q14 2 22 -7t10 -21q4 -29 -28 -39q-4 -2 -24.5 -5.5t-53.5 -5.5q-135 -217 -242.5 -398t-165.5 -329q-4 -10 -15 -17t-21 -7q-18 0 -26.5 15t-2.5 30q57 145 155.5 320t227.5 382l-387 -63q-10 -14 -19.5 -27.5t-19.5 -28.5 q-55 -98 -106.5 -184t-90.5 -150.5t-62.5 -101.5t-23.5 -39q-8 -14 -28 -14q-23 0 -30 20q-3 8 -3 14q0 10 6 17q10 16 23 37q10 16 25 41t36 55q-12 -10 -21.5 -17t-19.5 -11q-27 -14 -45 10q-4 7 -4 15q0 5 2 11z" />
<glyph unicode="i" horiz-adv-x="593" d="M-90 29q-2 7 -2 15q0 26 22 71q30 59 84 135t120.5 159t125.5 154q23 43 43.5 82t38.5 72q12 57 29.5 115.5t38 105.5t46 78t54.5 31t43 -27q12 -23 3 -58.5t-27.5 -71.5t-39 -67.5t-32.5 -46.5q-4 -4 -5 -6t-6 -6q16 0 27 -10q23 -25 0 -47q-16 -12 -58 -61.5 t-100 -117.5q-6 -10 -12 -22t-12 -25q-117 -225 -195 -353t-141 -128q-33 0 -45 29zM-14 86q23 23 50 67t58 97q-35 -49 -64.5 -92t-43.5 -72zM494 1308q8 22 19 43t22 40l2 2q10 25 38 16q6 -2 17 -12q47 50 104 50q10 0 19 -1q29 -4 43 -24q12 -17 12 -41v-7 q-2 -27 -19.5 -59.5t-44 -61t-60.5 -48t-66 -19.5h-2q-39 0 -56.5 12t-27.5 27q-10 17 -10 37q1 22 10 46zM618 1323q13 12 27 12q10 0 21 -6q4 -4 8 -12l4 4q16 23 21.5 39t5.5 22h-5q-30 0 -55 -24q-8 -8 -14 -16.5t-13 -18.5z" />
<glyph unicode="j" horiz-adv-x="972" d="M73 362q5 58 17 123q-6 39 -6 77q0 15 1 30q3 53 13 102q20 72 41 104.5t43 37.5q20 4 32.5 -4.5t18.5 -18.5q8 -10 5 -27l-10 -28q-11 -27 -23 -70t-26.5 -97t-22.5 -110q8 -53 24.5 -107.5t45 -105.5t68.5 -97t93 -81q31 82 85 207t115.5 260t121 261t100.5 210 q53 111 85 168t54 92q-86 -23 -166 -28q-53 -3 -99 -3q-22 0 -43 1q-62 2 -101 8t-43 6q-14 4 -21.5 14t-3.5 25q2 14 13.5 21t25.5 3l43 -6q43 -6 111 -7h12q63 0 142 9q87 10 177 43q16 25 40 41.5t48.5 26.5t46.5 13q14 2 24 2q7 0 13 -1q16 -2 22.5 -10t10.5 -19 q0 -8 -5 -19t-24 -22q-35 -23 -65.5 -38t-65.5 -29q-10 -16 -16 -30.5t-16 -31.5q-23 -37 -55.5 -94t-86.5 -166q-29 -59 -67.5 -140t-81.5 -172t-85 -187.5t-80 -184.5t-67.5 -161.5t-44.5 -120.5q-6 -16 -22 -21q-4 -2 -12 -2q-12 0 -21 8q-4 0 -10 7q-49 29 -87 67.5 t-66.5 80.5t-49 84t-37.5 77q0 -16 1 -29.5t3 -28.5q4 -14 -5 -25t-21 -11q-12 -4 -23.5 3t-15.5 21q-3 23 -3 51q0 23 2 49z" />
<glyph unicode="k" horiz-adv-x="1253" d="M-88 58v9q0 16 6 29q10 23 46 54.5t102 85.5q35 61 77.5 134.5t87.5 155.5t89.5 170t85.5 174q47 98 81.5 187.5t57 160t33 116.5t10.5 59q-4 12 3 23t19 16q4 1 8 1q6 -1 14 -5q10 -8 15 -21q2 -6 2 -18q0 -21 -7 -57q-11 -56 -35.5 -134t-60.5 -170t-81 -186 q-66 -135 -133.5 -264t-126.5 -230q92 72 202.5 163t227.5 202q27 29 71 69.5t98 86.5t111.5 94.5t111.5 94.5t100.5 85t74.5 65q12 12 30.5 23.5t38 21t38 15.5t28.5 8q12 2 22.5 -5t12.5 -22v-5q0 -8 -4 -15q-6 -10 -20 -15q-8 -2 -44 -18t-59 -35q-8 -6 -43 -34.5 t-86 -70.5t-110.5 -93.5t-115.5 -100.5t-103.5 -92t-69.5 -70v-616l133 139q-14 18 2 39q33 37 67.5 75t67.5 69.5t59.5 55t40.5 34.5q23 16 36.5 9t17.5 -11q6 -8 8 -16.5t-7 -25t-35 -47t-75 -84t-126 -134.5t-189 -197q-8 -8 -33 -8q-33 0 -33 32v625 q-156 -145 -284.5 -246.5t-251.5 -197.5q-43 -74 -67.5 -113t-39 -57.5t-21.5 -21.5t-14 -3q-33 0 -49 23q-10 13 -12 35z" />
<glyph unicode="l" horiz-adv-x="942" d="M-137 29q-1 2 -1 4q0 9 15 24q8 10 48 80t99.5 180.5t130 251t138.5 291.5q49 106 84 205.5t58.5 176.5t34.5 123l11 46q3 13 15 19q8 4 17 5q3 0 6 -1q11 -2 18.5 -11.5t5.5 -23.5q-25 -147 -82.5 -306t-130 -317t-153.5 -307.5t-150 -275.5q63 43 131.5 83.5 t111.5 57.5q54 21 98 21q16 -1 30 -3q54 -10 89 -48t51.5 -95t16.5 -125q31 37 69 87t66 99q-33 12 -47 38t-12 53.5t15 54t36 41t50.5 12.5t55.5 -31q23 -24 23 -60q0 -7 -1 -14q-5 -45 -31.5 -96t-65.5 -103t-78 -95t-72 -70t-45 -27q-18 0 -25.5 23.5t-8.5 58.5t-3 76 t-11 77t-29.5 60.5t-61.5 26.5q-55 -2 -117.5 -29.5t-123 -67.5t-114 -84t-90.5 -81q-16 -25 -24 -29t-16 -4q-27 0 -31 29zM694 375q-1 -4 -1 -9q0 -21 24 -40l4 -4q25 41 25 61q0 6 -3 10q-10 9 -20 9q-5 0 -11 -3q-16 -8 -18 -24z" />
<glyph unicode="m" horiz-adv-x="1187" d="M-123 0q-3 4 -3 12q0 16 14 50q20 50 62 128t99 178.5t120.5 213t127 231.5t117.5 234q54 121 86 217q28 85 28 180v24q4 29 31 33h2q23 0 37 -36q14 -38 21.5 -90t10.5 -104t3 -79q0 -45 -6 -90t-16.5 -84t-19.5 -71t-16 -48q-6 -20 -16 -51t-19.5 -65.5t-18.5 -70.5 t-13 -67q23 27 53.5 63.5t65.5 79.5t72.5 89.5t74.5 91.5q90 113 162 204t125 148t90 75q13 6 24 6q21 0 35 -22q17 -23 17 -59q-1 -30 -13 -69q-26 -85 -80.5 -184t-118 -198.5t-106.5 -169.5q-35 -61 -74.5 -127.5t-78.5 -134.5q12 -6 12 -22q-4 -25 -18 -31 q-8 -18 -23.5 -75.5t-32 -122t-34 -119t-27.5 -66.5q-49 -49 -96 -51q-37 0 -62 24q-6 6 -8 11q-8 16 4 56t55 124t122 220t204 347q39 63 76 124t67.5 115t55 97t36.5 72q43 78 57.5 123t14.5 61q-14 -12 -50 -54t-84 -99.5t-101.5 -123t-100.5 -124.5q-115 -141 -180 -220 t-99 -117t-46.5 -45t-24.5 -5q-20 4 -29 24q-6 16 -6 44t8.5 71t24.5 103.5t43 144.5q6 14 15.5 42.5t17.5 65.5t13 80t5 84q2 16 3 31.5t-1 32.5q-18 -53 -39.5 -115t-54.5 -127q-49 -104 -108.5 -219t-121 -225.5t-118.5 -211t-102.5 -177t-74 -122t-28.5 -47.5 q-4 -14 -17.5 -17t-25.5 1zM530 16h5q20 0 45 29q12 16 18 42t10 52.5t9.5 50t15.5 35.5q-39 -72 -68 -128t-35 -81z" />
<glyph unicode="n" horiz-adv-x="1054" d="M-152 28q-2 5 -1 10q0 9 6 15q72 121 156.5 263.5t168.5 288t163 282.5t139.5 247.5t98 185.5t42.5 93q2 6 5 19.5t19 17.5q10 6 20.5 3t18.5 -9q10 -8 18 -60q7 -52 9 -130q1 -39 1 -84q0 -46 -1 -96q-2 -102 -12.5 -209t-28 -216.5t-43.5 -206.5q-12 -49 -24.5 -92 t-22.5 -80q57 98 128.5 216t143.5 245q57 119 107.5 232.5t90.5 208t68.5 164t42.5 102.5q57 143 123 149q10 0 22 1h5q10 0 19 -3q11 -4 17.5 -14t6.5 -29q0 -12 -6.5 -28.5t-24.5 -24.5q-53 -117 -97 -206t-87 -169t-88 -163t-101 -189q-51 -109 -104 -218.5t-97 -199.5 t-73 -151.5t-33 -69.5q-4 -12 -16.5 -16.5t-28.5 -0.5q-14 6 -18 23q-39 -63 -61.5 -99t-24.5 -38q-9 -17 -27 -17q-3 -1 -6 -1q-6 0 -12 3q-31 14 -21 43l8 24q8 24 24.5 76t40 136t56.5 205q31 109 47.5 224.5t24.5 225t9 204.5v60q0 57 -1 103q-41 -78 -102.5 -189.5 t-133 -236.5t-146.5 -254t-142.5 -242.5t-119.5 -203t-79 -134.5q-8 -12 -21.5 -17t-25.5 3q-15 10 -19 24z" />
<glyph unicode="o" horiz-adv-x="989" d="M4 207q-1 10 -1 22q-1 35 9 77q12 56 35 124q-27 72 -28 144v10q-1 66 13 122q14 60 37 100t44 50q12 6 26.5 6t24.5 -10q6 -10 9 -19.5t-5 -17.5q-4 -10 -18.5 -27.5t-27.5 -47.5q-14 -28 -24 -76q-9 -40 -8 -95v-22q33 66 79 176.5t109.5 232t145.5 238.5t186 195 q39 31 77 45t72 18q15 2 30 2q19 0 35 -3q30 -5 53 -13q55 -18 89.5 -66.5t54 -108t25.5 -121.5q2 -24 1 -46q0 -36 -5 -68q-14 -90 -59 -196.5t-110.5 -216t-145.5 -214t-164 -189.5t-165.5 -143.5t-149.5 -76.5q-27 -6 -55 -6q-10 0 -21 1q-39 3 -66 17q-39 25 -67.5 73 t-34.5 130zM70 209q2 -66 32.5 -102.5t53.5 -51.5q18 -9 41 -9q28 0 65 13q49 18 111.5 67.5t130 118t136.5 152.5t130 175.5t111.5 185.5t79.5 180q-39 -66 -90.5 -145.5t-111 -159.5t-127 -155t-140.5 -126q-74 -50 -152 -74q-40 -12 -81 -13q-38 0 -77 11 q-33 6 -53.5 17.5t-38.5 40.5q-16 -42 -20 -68q-2 -13 -2 -27t2 -30zM113 430q23 -35 47 -60.5t59 -35.5q19 -5 39 -5q41 -1 88 19q70 28 142.5 86t144.5 137.5t133 165.5t108.5 173t69.5 159q11 38 11 79q0 30 -6 62q-15 76 -56 117q-46 42 -98 42q-9 0 -17 -1 q-62 -8 -127 -58t-129.5 -130t-124 -173.5t-110.5 -189.5t-90 -178t-60.5 -138.5t-23.5 -70.5z" />
<glyph unicode="p" horiz-adv-x="985" d="M-47 49q2 2 43 75t103.5 189.5t137 261t142.5 287.5q-18 25 2 45q8 10 22 11q59 129 92 227t46 158q-16 8 -26.5 16t-18.5 16q-23 23 -22 46.5t18 39.5q18 16 48 19h5q26 0 49 -23q17 -13 17 -56q0 -8 -1 -18q27 -8 65 -12q15 -2 33 -2q26 0 57 4q52 6 117.5 24.5 t149.5 53.5q25 10 52.5 1t50.5 -40q53 -70 60 -144q2 -17 2 -33q0 -58 -21 -115q-25 -74 -75 -141t-109.5 -118t-122 -81.5t-111.5 -32.5h-14q-38 0 -77 9q-46 11 -89 29.5t-81 39t-65 38.5q-70 -143 -143.5 -286.5t-135 -258t-101.5 -187.5l-40 -73q-10 -18 -28 -18 q-8 0 -17 4q-19 12 -19 28q0 8 5 17zM461 883q23 -16 57.5 -36t74.5 -37t83 -30q37 -10 71 -10h11q27 0 73 26.5t95 69.5t95 99.5t73 118.5q29 65 29 131q0 62 -40 120q-17 17 -23 17h-1q-170 -72 -281 -82q-39 -4 -73 -4q-61 0 -103 12q-10 -45 -25.5 -97.5t-35 -104.5 t-41 -102t-39.5 -91z" />
<glyph unicode="q" horiz-adv-x="974" d="M4 207q0 152 53.5 319.5t135 324.5t183 288t199.5 209q100 80 195 83h11q87 0 153 -43q70 -47 106 -132q23 -56 23 -118q0 -31 -6 -63q-18 -92 -68.5 -207.5t-122 -234.5t-157.5 -233.5t-174 -204.5l108 -89q18 35 48 73t61.5 71t59.5 57.5t44 36.5q14 8 27.5 10t21.5 -6 q23 -20 2 -41q-12 -10 -39.5 -36.5t-60.5 -64.5t-67.5 -85t-59.5 -96q-6 -10 -21 -17h-4q-6 -2 -15 1t-13 7l-162 113q-59 -53 -114.5 -89t-102.5 -48q-27 -6 -55 -6q-10 0 -21 1q-39 3 -66 17q-39 25 -70.5 73t-31.5 130zM74 188q25 -72 72 -110q27 -21 63 -21q25 0 55 11 q66 27 148 102q-12 16 -14.5 36.5t5 35t23.5 18.5t43 -12l12 -10q72 76 148 174t144.5 206.5t124.5 223t91 223.5q-16 -33 -32.5 -47t-29 -16.5t-18.5 5t-6 17.5q0 20 8.5 28.5t17.5 16.5t18 21.5t16 42.5q4 27 1 58.5t-15.5 61t-32 53t-46.5 33.5q-40 15 -80 15 q-37 0 -74 -14q-77 -27 -150.5 -92.5t-141.5 -162t-126 -204t-104.5 -218t-76 -207t-41.5 -168.5q-7 -38 -7 -64q0 -22 5 -36z" />
<glyph unicode="r" horiz-adv-x="1177" d="M1 28q-1 4 -1 8q0 10 6 19q2 0 43 65.5t104.5 173t139.5 244t147 279.5q-8 -2 -18 -2q-4 0 -8 -2q-23 -8 -37 16q-12 16 2 39q66 86 105.5 124t62.5 50q29 66 50 124.5t38 107.5q-33 0 -52.5 2t-29.5 4q-14 4 -24.5 15.5t-8.5 25.5q2 12 9.5 23.5t23.5 11.5q43 0 64.5 -4 t39.5 -4q14 45 21.5 85t7.5 50q-4 14 5 29.5t24 19.5q5 1 9 1q8 0 16 -5q12 -8 16 -23q4 -16 -4 -58t-23 -97q70 6 139.5 12t126 11t93 8t45.5 3q12 0 27.5 -6t19.5 -18q5 -9 5 -21q0 -9 -3 -19q-6 -24 -18.5 -49.5t-29 -49t-30.5 -41.5q-39 -47 -89 -96.5t-105.5 -92.5 t-111 -74.5t-102.5 -44.5q-14 -4 -26.5 -6t-26.5 -6q8 -76 18.5 -173t20.5 -196.5t19.5 -190.5t15.5 -153q82 104 137 169t121 102q12 8 26.5 4t20.5 -14q8 -14 3 -28.5t-17 -23.5q-27 -14 -54.5 -39.5t-62.5 -65.5t-77 -93.5t-95 -122.5q-11 -15 -29 -15q-14 2 -23.5 12.5 t-9.5 22.5q-10 92 -20 199.5t-21.5 214t-21.5 205t-19 172.5l-47 -10q-74 -152 -154.5 -297.5t-149 -261t-113.5 -187.5t-48 -74q-8 -14 -21 -15h-4l-22 5q-12 8 -15 22zM616 1030l9 -16l12 -84q10 4 21.5 5t21.5 5q37 8 84 37t98 67.5t100.5 85t88.5 93.5q23 25 36 48 t19 40q-27 -2 -69 -5t-94 -7.5t-112.5 -9.5t-121.5 -9q-16 -57 -40 -120.5t-53 -129.5z" />
<glyph unicode="s" horiz-adv-x="1132" d="M-23 119v6q0 55 34 115q36 62 77 104q46 45 79 45q9 0 17 -4q10 -4 20.5 -14.5t10.5 -36.5q0 -14 -10 -23.5t-23 -9.5q-20 0 -28 14q-4 -4 -8.5 -8t-12.5 -10q-41 -41 -65.5 -90t-24.5 -88q0 -29 20 -49q8 -6 48.5 -4t121.5 32q94 35 198 94.5t193 127t151.5 138 t74.5 130.5q5 23 5 39q0 21 -9 30q-16 16 -60.5 13.5t-80.5 -8.5q-2 0 -32 -5.5t-73 -12.5t-92 -14t-92 -12q-72 -12 -128 -12q-130 0 -169 64q-16 26 -16 57q0 62 61 147q45 63 117.5 133t163 136.5t190.5 125t201 98.5q100 39 193 57q47 9 89 9q41 0 78 -8q18 -6 36.5 -14 t35 -19.5t28 -25.5t13.5 -35v-6q-1 -42 -49 -83q-52 -44 -170 -103q-83 -40 -135 -40q-34 0 -56 17q-10 8 -21.5 27.5t-0.5 58.5q10 35 34.5 75t59.5 71q-102 -29 -215 -86.5t-216.5 -129t-188.5 -149.5t-134 -147q-49 -68 -49 -107q0 -14 6 -24q4 -6 16 -15q12 -8 38 -13 q22 -4 55 -4h14q43 1 111 11q43 4 92 11t92 14.5t72 12.5l30 5q54 8 110 9h2q54 0 89 -36q25 -28 25 -74q0 -25 -7 -55q-16 -74 -85.5 -152.5t-166 -152t-205 -134t-200.5 -95.5q-99 -37 -162 -37q-47 0 -71 18q-45 39 -46 101zM940 1165q4 -3 13 -3q4 0 10 1q14 2 37.5 9.5 t60.5 25.5q68 33 105.5 57.5t54 40t19.5 23.5l3 8q0 4 -8 10q-12 10 -57 25q-23 6 -45 6q2 -2 2 -4q14 -27 -3.5 -54.5t-33.5 -43.5q-10 -10 -22.5 -10.5t-22.5 10.5q-10 8 -10.5 22.5t8.5 24.5q4 2 6 4l6 6h-10q-25 -6 -57.5 -42t-49.5 -77q-7 -16 -7 -25z" />
<glyph unicode="t" horiz-adv-x="1294" d="M285 1382q5 30 31 46q10 6 20 6q16 0 31 -15q14 -10 9 -34.5t-22 -24.5q27 -31 76 -46q48 -14 106 -18q33 -2 67 -2q25 0 51 1q60 3 108 8q12 0 17 3t13.5 6t22.5 7t43 8q7 1 14 1q26 0 52 -12q32 -16 41 -20h15q28 0 54 6q34 8 107 13q59 6 117.5 11t111.5 8q32 2 60 2 q19 0 37 -1q44 -2 75 -8q29 -5 29 -35v-8q-2 -14 -15.5 -21.5t-29.5 -2.5q-27 6 -70 6t-94 -3t-107.5 -8.5t-107.5 -11.5q-47 -4 -89 -8t-77 -6q13 -43 19 -123q1 -11 1 -24q0 -74 -28 -179q-18 -57 -42 -106t-53.5 -97.5t-63.5 -95.5t-71 -98q-33 -47 -56 -80t-40.5 -59.5 t-31 -47t-25.5 -38.5q-47 -70 -92 -136.5t-103 -132.5q-12 -12 -26 -12q-23 0 -31 19.5t2 35.5l287 508q43 84 90 170t84 171t57 167q13 50 13 98q0 30 -5 60l-51 -4q-16 -16 -20 -31q-2 -8 -2 -12q4 -31 -29 -35q-16 -2 -26.5 6t-12.5 21q0 4 -1 16t5 31q-29 -2 -58.5 -3 t-58.5 -1q-92 0 -174 15t-123 58q-31 31 -31 75q0 8 1 17zM717 588q61 88 114.5 175t86.5 185q14 51 14 81v65q-25 -141 -88.5 -263t-126.5 -243z" />
<glyph unicode="u" horiz-adv-x="1251" d="M-86 35q0 16 8 22q14 10 45 58.5t73 119t90 157.5t97 175q66 113 131.5 228.5t128.5 224.5q59 96 100.5 168t69.5 123q33 57 54 102q6 12 18 17.5t25 -3.5q12 -4 16 -16t-2 -25q0 -2 -53 -103t-172 -298q-63 -106 -129 -222t-131 -228q-63 -113 -113.5 -203t-91.5 -156 q74 57 131 97t115 40q86 0 149.5 -46t114.5 -107q25 -33 45 -50.5t43 -21.5q16 10 40.5 51t55.5 103q25 51 49.5 110.5t52.5 124.5q29 68 60 137.5t65 141.5q23 47 44.5 92t43.5 88q18 59 35 114.5t33 102.5q33 96 50.5 149.5t26.5 80t13 33.5t8 11q15 15 33 15q9 0 19 -4 q23 -8 37 -36t14 -50q0 -6 -2 -13.5t-13.5 -31t-34 -68.5t-61.5 -125q-23 -45 -47 -97t-53 -106q-45 -139 -87 -262t-79 -219t-66.5 -161.5t-50.5 -86.5q-10 -10 -23.5 -10t-21.5 10q-2 0 -2 2q-10 -20 -26.5 -47.5t-34 -52.5t-36 -42t-34.5 -19q-27 -2 -47.5 6t-36.5 21 t-31.5 31.5t-29.5 37.5q-33 41 -87.5 77.5t-127.5 53.5q-33 0 -72 -21.5t-79 -52.5t-78 -63.5t-66 -57.5q-35 -31 -52.5 -43t-29.5 -12q-6 0 -15 4q-18 10 -18 31z" />
<glyph unicode="v" horiz-adv-x="1200" d="M365 1223q0 49 18 84.5t47 35.5q18 0 31 -18q6 -10 6 -22q6 -25 9 -91.5t7 -177.5q6 -18 24.5 -40.5t24.5 -32.5q8 -14 -12 -25.5t-31 -15.5v-21q2 -94 5.5 -195.5t5.5 -199.5t4 -189.5t4 -164.5q25 41 57.5 93t71.5 111q57 88 124.5 187.5t138.5 202t140.5 203 t133 189.5t116.5 161.5t90 121.5q8 13 22 15h4q10 0 19 -9q9 -8 13 -21l2 -8q0 -9 -6 -16q-37 -49 -91.5 -121.5t-117 -161.5t-132 -189.5t-139 -202t-136 -200.5t-124.5 -186q-43 -63 -77.5 -117.5t-59.5 -95t-39 -65.5l-14 -25q-7 -16 -27 -16h-12q-23 8 -23 31 q-2 115 -4 242.5t-5 255.5t-7 250t-6 222q-10 27 -19.5 58t-17.5 61.5t-13 57t-5 45.5z" />
<glyph unicode="w" horiz-adv-x="1497" d="M51 34q2 14 21 38q10 29 28.5 88t40 134t44 159t43 160.5t36 140t21.5 96.5q8 49 9 94v29q0 28 -1 52q-2 36 -6 57l-4 22q-4 10 4 21.5t20 15.5q10 2 20.5 -4.5t14.5 -20.5q0 -2 4 -25.5t7 -61.5q2 -23 1 -50v-38q-2 -50 -12 -103q-10 -55 -38 -166t-66 -258 q-18 -70 -34 -123t-28 -94q10 10 18.5 20t18.5 21q57 61 121.5 138t136.5 156q78 96 149.5 197.5t131.5 188.5q43 61 71.5 101t48 63.5t31.5 32.5t23 11q20 2 32 -10q32 -32 32 -85q0 -51 -32 -138q-32 -90 -98.5 -227.5t-173.5 -337.5q-55 -104 -89 -178t-51.5 -121 t-18.5 -75t12 -40q7 -5 17 -5q22 -1 58 25q52 36 127 144q14 23 46 64.5t73 98t92.5 123t106.5 138.5q23 39 51.5 82t58.5 88q47 72 100.5 152.5t105.5 161.5t102.5 157t90.5 134t66.5 96t32.5 44q18 18 36 18q5 1 11 -1q24 -6 33 -19q14 -15 14 -38q0 -33 -30 -81 q-12 -23 -131 -180.5t-324 -429.5q-43 -55 -85 -111.5t-85 -109.5q-49 -76 -94 -146.5t-84 -132t-70 -112.5t-51 -88q16 -16 8 -37q-10 -23 -31.5 -40.5t-50.5 -12.5q-23 4 -25.5 21t5.5 30q-51 -51 -96 -75t-80 -24q-47 2 -62 43q-4 15 -4 34q0 52 28 135q38 114 134 298 q159 303 233 467q63 138 62 202q0 12 -2 22q-23 -25 -54.5 -70t-66.5 -96q-59 -88 -132 -189.5t-155 -199.5q-72 -82 -137.5 -157t-118.5 -140q-43 -51 -82 -93.5t-56 -64.5q-12 -29 -20 -34t-20 -5q-18 0 -29 12q-5 6 -5 15q0 4 1 7zM1616 1241q27 35 43 58.5t20 29.5 q7 9 9 17q-12 -18 -31 -45t-41 -60z" />
<glyph unicode="x" horiz-adv-x="1193" d="M160 146q48 74 141 208l250 367q-33 102 -64.5 199.5t-57.5 177.5t-45 137t-28 82q-2 6 -6 17.5t-8 23.5t-6 24.5t-2 18.5t6 15q6 8 14 14q5 4 12 4q4 0 8 -1q12 -3 23 -22q55 -127 110.5 -284.5t104.5 -319.5q63 94 127 184t120 171t103.5 146.5t81.5 110.5q8 13 22 15 h4q11 0 20 -9q10 -8 13 -21q1 -4 1 -7q0 -9 -6 -17q-37 -47 -88.5 -117.5t-111.5 -155.5t-128 -181.5t-135 -194.5q33 -113 62.5 -217t52 -189t39 -145.5t24.5 -85.5q4 -16 16.5 -16t36.5 31q10 12 22.5 13t22.5 -9t10.5 -25.5t-6.5 -28.5q-29 -57 -88 -59h-16q-20 0 -23 4 q-4 6 -12 21q-2 2 -19.5 56t-45 140t-63.5 196.5t-73 227.5q-59 -86 -114 -169t-103 -157q-43 -63 -77.5 -117.5t-59 -95t-39.5 -65.5l-14 -25q-7 -16 -27 -16h-12q-9 4 -17 12q-6 6 -6 15q0 36 54 119z" />
<glyph unicode="y" horiz-adv-x="1024" d="M262 80q14 47 47 105.5t78 119t85 110.5t67.5 82.5t25.5 32.5q8 8 23 9q16 66 24.5 129t30.5 120q-14 -2 -28 -2q-47 0 -89 22q-53 28 -91 76t-57 108q-18 53 -18 104v10q0 4 1 46t7.5 92t17.5 94t34 53q23 10 41 -9q12 -12 21.5 -33.5t15.5 -44t10 -42t4 -27.5 q4 -14 -5 -25.5t-26 -13.5q-14 -2 -21 3t-10.5 14.5t-5.5 19.5t-4 18q-8 -53 -12 -109q-1 -18 -1 -35q0 -38 6 -74q9 -52 37 -94t83 -67q35 -15 72 -15q39 0 80 17q61 27 145 88.5t167 139.5t151.5 162t99.5 153q6 14 20 19q7 3 14 3t13 -3q14 -6 18 -20q2 -6 2 -12.5 t-2 -12.5q-25 -53 -69.5 -113.5t-103 -122t-123 -121t-125 -108.5t-111.5 -84t-84 -49q-35 -190 -85 -334t-103.5 -241t-104.5 -150.5t-86 -65.5q-10 -4 -17.5 -4h-13.5q-12 0 -20 4t-15 8q-14 14 -14 39q0 14 4 31zM338 80q35 23 89.5 93.5t109.5 213.5q-25 -35 -54.5 -75 t-57.5 -81t-50.5 -80.5t-36.5 -70.5z" />
<glyph unicode="z" horiz-adv-x="1366" d="M10 70q12 25 43 67.5t78 100t110.5 126t139.5 140.5q63 57 105 97t81 77q-39 2 -55 -5t-24.5 -16.5t-15.5 -16.5t-28 -1q-14 4 -20 15.5t-2 25.5q2 4 10 18.5t33 26.5q36 20 94 20q32 0 72 -6q86 82 172 161t164 153q72 66 139.5 122t120.5 97l12 12t14 10 q-63 -4 -141 -4t-153.5 2t-140 4t-97.5 4q-49 4 -83 19.5t-56.5 35t-32.5 38t-10 26.5q0 2 2 6t18 13q6 3 12 3h3q8 -1 14 -3q8 -2 12 -6q8 -18 27 -31q16 -12 39.5 -21.5t60.5 -13.5q47 -4 134 -7t181 -4h46q68 0 130 2q82 3 121 11q29 4 39 -18q5 -13 5 -19q0 -7 -10 -19 q-11 -12 -34.5 -32t-68.5 -57q-53 -43 -120 -100.5t-138 -121.5q-72 -66 -146.5 -135t-154.5 -141q41 -10 87 -24.5t97 -32.5q12 -4 17.5 -17.5t0.5 -25.5q-6 -23 -28 -23q-72 23 -131.5 42.5t-102.5 23.5l-225 -213q-104 -100 -178 -184.5t-119 -141.5q49 37 97 70.5 t89 58.5t73 38t52 11q37 -4 78 -41t100 -98q25 -27 52.5 -54.5t54.5 -50t51.5 -37t42.5 -14.5q37 0 106.5 31t138.5 87t119 133t50 169q0 33 35 33q33 0 32 -33q0 -74 -26.5 -139.5t-70.5 -119.5t-97 -96t-107.5 -72t-101.5 -45t-78 -15q-29 0 -60.5 15t-63 41t-63.5 57.5 t-63 62.5q-37 39 -76.5 78t-62.5 43q-12 0 -41 -15.5t-64.5 -39t-70.5 -49t-59 -44.5q-86 -66 -122 -85t-59 -1q-14 12 -14 30q0 14 10 32z" />
<glyph unicode="&#xad;" horiz-adv-x="776" d="M111 659q-6 14 6 38t26 24q84 0 138.5 2t113 3t140 1t221.5 -6q16 0 30.5 -15.5t12.5 -33.5q-14 -35 -51 -35q-90 6 -165 6t-142.5 -3t-131 -6t-133.5 -1q-41 2 -49 5t-16 21z" />
<glyph unicode="&#xc5;" horiz-adv-x="835" d="M-6 61q27 66 90 185t145 262h-8q-10 0 -16 4q-23 14 -8 41q2 4 21.5 23.5t64.5 23.5q49 86 100 172t100 167t93.5 152.5t78.5 131.5l25 45q4 51 8 82.5t10.5 50t14.5 26t20 11.5q23 8 37 3t23 -11q10 -12 15 -30t-3 -40q0 -4 -2 -7t-8.5 -14.5t-18.5 -32t-35 -59.5 q-6 -133 -3 -261t-1 -257l-6 -100l43 6q29 0 33 -31q4 -29 -27 -33q-4 0 -17 -1t-36 -3q-12 -154 -31.5 -303t-52.5 -325q0 -12 -10 -18.5t-23 -6.5h-2q-31 6 -26 39q33 168 53 314.5t31 293.5l-349 -24q-45 -80 -87 -155t-76.5 -140.5t-60 -117.5t-40.5 -87 q-4 -12 -16 -17.5t-25 -1.5q-12 4 -17 17.5t-1 25.5zM356 600l314 25l4 104q4 111 0 208t0 198q-66 -111 -150 -250.5t-168 -284.5zM713 1567.5q-2 29.5 3 59.5t17 54.5t33 34.5q10 8 22.5 6t18.5 -12q16 18 36.5 31.5t45.5 17.5q29 2 47 -14t22 -43t-7 -63.5t-32.5 -72.5 t-51 -63t-60.5 -35q-29 -8 -51.5 5.5t-32.5 44.5q-8 20 -10 49.5zM782 1556l9 -20q8 2 28 16q-19 -10 -37 4zM829 1608q6 -6 11 -15q0 -14 -2 -24q18 27 34 57q14 25 17.5 40t3.5 22h-2q-20 -4 -38 -33t-24 -47z" />
<glyph unicode="&#xc6;" horiz-adv-x="1425" d="M-190 33.5q0 13.5 10 23.5l352 389q-10 10 -10 23q-2 14 8 24.5t23 12.5q4 0 13 1t25 3l537 590l166 180q16 53 29.5 86t23.5 52.5t20.5 26.5t22.5 7q29 2 42 -6t20 -19q8 -14 8 -34h101.5t117.5 3t113.5 10t91.5 19q33 10 43 -18q4 -12 -1 -23.5t-22 -17.5 q-35 -12 -81 -19.5t-96 -12.5t-103.5 -6t-98.5 -1h-98l-74 -80q-16 -51 -34.5 -112.5t-36.5 -126.5q-27 -88 -54.5 -187.5t-62.5 -210.5q92 16 163.5 30.5t108.5 23.5q20 6 31.5 -0.5t14.5 -16.5t-2 -22.5t-19 -14.5q-41 -10 -127 -27.5t-193 -37.5q-35 -111 -73.5 -225.5 t-83.5 -231.5q59 0 142 -6t198 -16q55 -4 98 -8.5t57 -2.5q33 4 37 -28q0 -33 -31 -37q-18 -2 -55 1t-113 11q-35 2 -82 6t-96 7t-96 5.5t-84 2.5q16 -20 -2 -43q-29 -27 -68 -27q-35 0 -55 20q-16 20 -14 43q0 8 4 18.5t16 24.5q18 18 72 25q45 113 83 224.5t73 221.5 q-123 -23 -239 -44t-189 -33q-88 -96 -163 -176t-130.5 -138.5t-87.5 -92.5l-33 -34q-23 -23 -47 -2q-10 10 -10 23.5zM352 530l379 68q37 117 68.5 225.5t60.5 202.5q14 61 31 111q-16 -18 -35.5 -39t-40.5 -43q-117 -135 -234.5 -268.5t-228.5 -256.5z" />
<glyph unicode="&#xd6;" d="M86 197q0 158 53.5 325.5t136 323t186 286t206.5 211.5q94 76 190 74t170 -52t115 -133t24 -171q-18 -94 -66 -206t-115.5 -226.5t-150.5 -224t-169 -199.5t-170 -152t-156 -80q-39 -10 -79 -7t-68 18q-41 27 -74 77t-33 136zM162 145q25 -76 71 -90t121 13 q51 20 118 74.5t139.5 132t147.5 175t141.5 204t121.5 218t90 218.5q-16 -35 -32.5 -49.5t-30 -17.5t-20.5 5.5t-5 20.5q0 20 6 23t13.5 3t14.5 7.5t13 37.5q4 27 -2 55.5t-21.5 54t-39 46t-52.5 31.5q-80 31 -158.5 3t-153.5 -93.5t-142.5 -163t-125 -206t-102.5 -220 t-73.5 -208.5t-38.5 -170t0 -104zM781 1565.5q1 27.5 8.5 53.5t20.5 47.5t32 27.5q10 6 21 2t16 -15q33 37 77 39q29 -2 43.5 -18t14.5 -41q2 -25 -12.5 -56.5t-37 -60t-51 -51.5t-57.5 -27q-27 -4 -47.5 9.5t-24.5 42.5q-4 20 -3 47.5zM842 1548l4 -20q8 0 13 4t15 8 q-18 -6 -32 8zM891 1591q4 -12 6 -16q0 -12 -4 -21q10 12 19.5 23.5t15.5 24.5q16 20 21 33.5t5 21.5h-2q-18 -4 -36.5 -27t-24.5 -39zM1124 1389q-14 43 11.5 92t66.5 82.5t86 42t72 -30.5q12 -18 2 -54t-33.5 -74t-56.5 -69t-64 -39q-29 -8 -52 5.5t-32 44.5zM1184 1434 l6 -21q-2 0 11 6t18 8q-19 -9 -35 7zM1232 1499q1 -12 5 -26.5t0 -26.5q10 14 16.5 24.5t16.5 24.5q14 23 16 33t-2 10l-24 2q-20 -8 -24.5 -18.5t-3.5 -22.5z" />
<glyph unicode="&#xd7;" d="M332 287q-14 33 0 49q4 8 8 8q33 20 78 57t95 82t102.5 94.5t99.5 96.5q-94 86 -174 175t-166 155q-16 14 -23.5 27t2.5 30q4 16 21.5 21t30.5 -1q78 -88 173 -173t193 -177q90 92 169 171t159 153q10 16 27.5 22t33.5 -4q16 -4 21.5 -21.5t1.5 -27.5q2 -2 -27 -32.5 t-78 -79t-113.5 -110t-134.5 -124.5q92 -88 181.5 -182.5t165.5 -202.5q10 -12 7 -29.5t-18 -27.5q-31 -16 -53 2q-6 2 -8 8q-68 104 -154 196.5t-178 178.5q-47 -47 -100 -97.5t-105.5 -98.5t-99.5 -87t-82 -64q-12 -6 -27.5 -4t-27.5 17z" />
<glyph unicode="&#xd8;" horiz-adv-x="1398" d="M31 363.5q8 89.5 40.5 177.5t82 167.5t109 144.5t120.5 103q25 14 43 -12q6 -10 3 -23.5t-15 -19.5q-68 -51 -127.5 -119.5t-104.5 -146.5t-70.5 -160t-23.5 -157.5t37 -142t108 -114.5q-59 63 -78.5 150.5t11.5 185.5q18 53 70.5 152.5t129 218.5t172 240.5t203 219 t220 154t225.5 43.5q4 6 28.5 41t58.5 70t69.5 52.5t60.5 -13.5q14 -18 11 -45t-20.5 -57.5t-44 -64.5t-57.5 -69q59 -102 63.5 -222t-31.5 -243.5t-106.5 -245.5t-162.5 -231.5t-198.5 -200t-215.5 -148.5t-212 -80t-187 5q-55 -66 -93 -110.5t-49 -63.5q-10 -14 -26 -14 q-8 0 -17 6q-10 8 -12 21.5t2 23.5q25 39 133 164q-12 8 -25.5 17.5t-23.5 21.5q-63 68 -85.5 151.5t-14.5 173zM207 284q0 -42 9 -75t25.5 -57.5t32.5 -40.5q57 66 126 160t142.5 201.5t150.5 222t155 218.5q-4 2 -18.5 1t-18.5 6q-8 10 -6 23t12 22q39 29 76 58.5t72 59.5 q72 98 109.5 161t66.5 116q-96 -8 -197.5 -70.5t-198 -155t-185.5 -204t-158.5 -218t-117 -195.5t-61.5 -138q-16 -53 -16 -95zM315 68q10 -8 19.5 -15.5t50.5 -11.5q10 4 27.5 25.5t37 43t37 35t25.5 2.5q8 -10 12 -14t0 -12t-17 -25.5t-40 -54.5q82 25 186.5 97.5t209 175 t198.5 228.5t153.5 257t74 258t-39.5 235q-63 -66 -118 -132.5t-125 -123.5q-86 -121 -176.5 -249t-179.5 -253.5t-174 -244.5t-161 -221zM1165 1298l39 41q0 2 -1 2t-1 2q-2 0 -2 3q-10 -10 -17.5 -23t-17.5 -25zM1239 1395q2 0 2 -1t2 -1q37 35 60.5 64t35.5 52 q-16 -16 -40.5 -42.5t-59.5 -71.5z" />
<glyph unicode="&#xe4;" />
<glyph unicode="&#xe5;" horiz-adv-x="835" d="M-6 61q27 66 90 185t145 262h-8q-10 0 -16 4q-23 14 -8 41q2 4 21.5 23.5t64.5 23.5q49 86 100 172t100 167t93.5 152.5t78.5 131.5l25 45q4 51 8 82.5t10.5 50t14.5 26t20 11.5q23 8 37 3t23 -11q10 -12 15 -30t-3 -40q0 -4 -2 -7t-8.5 -14.5t-18.5 -32t-35 -59.5 q-6 -133 -3 -261t-1 -257l-6 -100l43 6q29 0 33 -31q4 -29 -27 -33q-4 0 -17 -1t-36 -3q-12 -154 -31.5 -303t-52.5 -325q0 -12 -10 -18.5t-23 -6.5h-2q-31 6 -26 39q33 168 53 314.5t31 293.5l-349 -24q-45 -80 -87 -155t-76.5 -140.5t-60 -117.5t-40.5 -87 q-4 -12 -16 -17.5t-25 -1.5q-12 4 -17 17.5t-1 25.5zM356 600l314 25l4 104q4 111 0 208t0 198q-66 -111 -150 -250.5t-168 -284.5zM713 1567.5q-2 29.5 3 59.5t17 54.5t33 34.5q10 8 22.5 6t18.5 -12q16 18 36.5 31.5t45.5 17.5q29 2 47 -14t22 -43t-7 -63.5t-32.5 -72.5 t-51 -63t-60.5 -35q-29 -8 -51.5 5.5t-32.5 44.5q-8 20 -10 49.5zM782 1556l9 -20q8 2 28 16q-19 -10 -37 4zM829 1608q6 -6 11 -15q0 -14 -2 -24q18 27 34 57q14 25 17.5 40t3.5 22h-2q-20 -4 -38 -33t-24 -47z" />
<glyph unicode="&#xe6;" horiz-adv-x="1425" d="M-190 33.5q0 13.5 10 23.5l352 389q-10 10 -10 23q-2 14 8 24.5t23 12.5q4 0 13 1t25 3l537 590l166 180q16 53 29.5 86t23.5 52.5t20.5 26.5t22.5 7q29 2 42 -6t20 -19q8 -14 8 -34h101.5t117.5 3t113.5 10t91.5 19q33 10 43 -18q4 -12 -1 -23.5t-22 -17.5 q-35 -12 -81 -19.5t-96 -12.5t-103.5 -6t-98.5 -1h-98l-74 -80q-16 -51 -34.5 -112.5t-36.5 -126.5q-27 -88 -54.5 -187.5t-62.5 -210.5q92 16 163.5 30.5t108.5 23.5q20 6 31.5 -0.5t14.5 -16.5t-2 -22.5t-19 -14.5q-41 -10 -127 -27.5t-193 -37.5q-35 -111 -73.5 -225.5 t-83.5 -231.5q59 0 142 -6t198 -16q55 -4 98 -8.5t57 -2.5q33 4 37 -28q0 -33 -31 -37q-18 -2 -55 1t-113 11q-35 2 -82 6t-96 7t-96 5.5t-84 2.5q16 -20 -2 -43q-29 -27 -68 -27q-35 0 -55 20q-16 20 -14 43q0 8 4 18.5t16 24.5q18 18 72 25q45 113 83 224.5t73 221.5 q-123 -23 -239 -44t-189 -33q-88 -96 -163 -176t-130.5 -138.5t-87.5 -92.5l-33 -34q-23 -23 -47 -2q-10 10 -10 23.5zM352 530l379 68q37 117 68.5 225.5t60.5 202.5q14 61 31 111q-16 -18 -35.5 -39t-40.5 -43q-117 -135 -234.5 -268.5t-228.5 -256.5z" />
<glyph unicode="&#xf6;" d="M86 197q0 158 53.5 325.5t136 323t186 286t206.5 211.5q94 76 190 74t170 -52t115 -133t24 -171q-18 -94 -66 -206t-115.5 -226.5t-150.5 -224t-169 -199.5t-170 -152t-156 -80q-39 -10 -79 -7t-68 18q-41 27 -74 77t-33 136zM162 145q25 -76 71 -90t121 13 q51 20 118 74.5t139.5 132t147.5 175t141.5 204t121.5 218t90 218.5q-16 -35 -32.5 -49.5t-30 -17.5t-20.5 5.5t-5 20.5q0 20 6 23t13.5 3t14.5 7.5t13 37.5q4 27 -2 55.5t-21.5 54t-39 46t-52.5 31.5q-80 31 -158.5 3t-153.5 -93.5t-142.5 -163t-125 -206t-102.5 -220 t-73.5 -208.5t-38.5 -170t0 -104zM781 1565.5q1 27.5 8.5 53.5t20.5 47.5t32 27.5q10 6 21 2t16 -15q33 37 77 39q29 -2 43.5 -18t14.5 -41q2 -25 -12.5 -56.5t-37 -60t-51 -51.5t-57.5 -27q-27 -4 -47.5 9.5t-24.5 42.5q-4 20 -3 47.5zM842 1548l4 -20q8 0 13 4t15 8 q-18 -6 -32 8zM891 1591q4 -12 6 -16q0 -12 -4 -21q10 12 19.5 23.5t15.5 24.5q16 20 21 33.5t5 21.5h-2q-18 -4 -36.5 -27t-24.5 -39zM1124 1389q-14 43 11.5 92t66.5 82.5t86 42t72 -30.5q12 -18 2 -54t-33.5 -74t-56.5 -69t-64 -39q-29 -8 -52 5.5t-32 44.5zM1184 1434 l6 -21q-2 0 11 6t18 8q-19 -9 -35 7zM1232 1499q1 -12 5 -26.5t0 -26.5q10 14 16.5 24.5t16.5 24.5q14 23 16 33t-2 10l-24 2q-20 -8 -24.5 -18.5t-3.5 -22.5z" />
<glyph unicode="&#xf7;" horiz-adv-x="1026" d="M145 215q0 47 25 79t61 32q33 0 57.5 -15.5t41.5 -34.5q18 -23 30 -49q10 -33 -22 -43q-2 -4 -12 -4v-26q-4 -12 -21.5 -31t-58.5 -19q-23 0 -44.5 9.5t-31.5 27.5q-12 16 -18.5 36t-6.5 38zM145 829q0 47 25 79t61 32q33 0 57.5 -15.5t41.5 -33.5q18 -23 30 -49 q10 -33 -22 -43q-2 -4 -12 -4v-27q-4 -12 -21.5 -30.5t-58.5 -18.5q-23 0 -44.5 9t-31.5 28q-12 16 -18.5 35.5t-6.5 37.5zM215 205q0 -6 2 -11.5t4 -9.5q4 -4 9.5 -8t15.5 -4h8t4 2q4 6 4 16h-12q-25 -10 -35 15zM215 819q0 -6 2 -11t4 -9q4 -4 9.5 -8.5t15.5 -4.5h8t4 2 q4 6 4 17h-12q-25 -11 -35 14z" />
<glyph unicode="&#xf8;" horiz-adv-x="1398" d="M31 363.5q8 89.5 40.5 177.5t82 167.5t109 144.5t120.5 103q25 14 43 -12q6 -10 3 -23.5t-15 -19.5q-68 -51 -127.5 -119.5t-104.5 -146.5t-70.5 -160t-23.5 -157.5t37 -142t108 -114.5q-59 63 -78.5 150.5t11.5 185.5q18 53 70.5 152.5t129 218.5t172 240.5t203 219 t220 154t225.5 43.5q4 6 28.5 41t58.5 70t69.5 52.5t60.5 -13.5q14 -18 11 -45t-20.5 -57.5t-44 -64.5t-57.5 -69q59 -102 63.5 -222t-31.5 -243.5t-106.5 -245.5t-162.5 -231.5t-198.5 -200t-215.5 -148.5t-212 -80t-187 5q-55 -66 -93 -110.5t-49 -63.5q-10 -14 -26 -14 q-8 0 -17 6q-10 8 -12 21.5t2 23.5q25 39 133 164q-12 8 -25.5 17.5t-23.5 21.5q-63 68 -85.5 151.5t-14.5 173zM207 284q0 -42 9 -75t25.5 -57.5t32.5 -40.5q57 66 126 160t142.5 201.5t150.5 222t155 218.5q-4 2 -18.5 1t-18.5 6q-8 10 -6 23t12 22q39 29 76 58.5t72 59.5 q72 98 109.5 161t66.5 116q-96 -8 -197.5 -70.5t-198 -155t-185.5 -204t-158.5 -218t-117 -195.5t-61.5 -138q-16 -53 -16 -95zM315 68q10 -8 19.5 -15.5t50.5 -11.5q10 4 27.5 25.5t37 43t37 35t25.5 2.5q8 -10 12 -14t0 -12t-17 -25.5t-40 -54.5q82 25 186.5 97.5t209 175 t198.5 228.5t153.5 257t74 258t-39.5 235q-63 -66 -118 -132.5t-125 -123.5q-86 -121 -176.5 -249t-179.5 -253.5t-174 -244.5t-161 -221zM1165 1298l39 41q0 2 -1 2t-1 2q-2 0 -2 3q-10 -10 -17.5 -23t-17.5 -25zM1239 1395q2 0 2 -1t2 -1q37 35 60.5 64t35.5 52 q-16 -16 -40.5 -42.5t-59.5 -71.5z" />
<glyph unicode="&#x2000;" horiz-adv-x="879" />
<glyph unicode="&#x2001;" horiz-adv-x="1759" />
<glyph unicode="&#x2002;" horiz-adv-x="879" />
<glyph unicode="&#x2003;" horiz-adv-x="1759" />
<glyph unicode="&#x2004;" horiz-adv-x="586" />
<glyph unicode="&#x2005;" horiz-adv-x="439" />
<glyph unicode="&#x2006;" horiz-adv-x="293" />
<glyph unicode="&#x2007;" horiz-adv-x="293" />
<glyph unicode="&#x2008;" horiz-adv-x="219" />
<glyph unicode="&#x2009;" horiz-adv-x="351" />
<glyph unicode="&#x200a;" horiz-adv-x="97" />
<glyph unicode="&#x2010;" horiz-adv-x="776" d="M111 659q-6 14 6 38t26 24q84 0 138.5 2t113 3t140 1t221.5 -6q16 0 30.5 -15.5t12.5 -33.5q-14 -35 -51 -35q-90 6 -165 6t-142.5 -3t-131 -6t-133.5 -1q-41 2 -49 5t-16 21z" />
<glyph unicode="&#x2011;" horiz-adv-x="776" d="M111 659q-6 14 6 38t26 24q84 0 138.5 2t113 3t140 1t221.5 -6q16 0 30.5 -15.5t12.5 -33.5q-14 -35 -51 -35q-90 6 -165 6t-142.5 -3t-131 -6t-133.5 -1q-41 2 -49 5t-16 21z" />
<glyph unicode="&#x2012;" horiz-adv-x="776" d="M111 659q-6 14 6 38t26 24q84 0 138.5 2t113 3t140 1t221.5 -6q16 0 30.5 -15.5t12.5 -33.5q-14 -35 -51 -35q-90 6 -165 6t-142.5 -3t-131 -6t-133.5 -1q-41 2 -49 5t-16 21z" />
<glyph unicode="&#x2013;" horiz-adv-x="1157" d="M238 657.5q0 10.5 2 18.5q4 20 49 20h145h48h73h74t49 -2q6 8 18.5 10.5t26.5 2.5t27.5 -3.5t21.5 -7.5q6 -2 19.5 -2t26.5 -2t21.5 -8t4.5 -18q-6 -18 -29 -19q-158 -2 -251 -2t-146 1t-78 2t-45 1q-6 -8 -22.5 -9t-24.5 3q-10 4 -10 14.5z" />
<glyph unicode="&#x2014;" horiz-adv-x="1107" d="M74 694q-4 20 16 27q16 6 31 -10q6 -4 44 -8.5t142 -0.5h51h63t60.5 1.5t46.5 1.5h69h90t86 1t61 3q29 6 49 8t39 4q27 0 57 6q20 6 29 -18q4 -8 -1.5 -16.5t-15.5 -12.5q-29 -8 -66.5 -13t-82.5 -8q-20 -6 -51 -14q-5 -2 -9 -2q-16 0 -22 14q-12 0 -44 -1t-69 -1h-70.5 h-48.5q-18 0 -46.5 -1t-60.5 -1h-62.5h-51.5q-78 -2 -123 1t-68.5 8.5t-31.5 13.5t-10 18z" />
<glyph unicode="&#x2018;" horiz-adv-x="335" d="M59.5 1210.5q-6.5 73.5 7 154.5t37.5 142q16 27 43 17q12 -4 17.5 -16.5t-0.5 -24.5q-43 -100 -46 -173t17 -136q15 45 78 45q35 0 55.5 -24t20.5 -65q0 -96 -94 -96q-66 0 -97.5 51.5t-38 125z" />
<glyph unicode="&#x2019;" horiz-adv-x="284" d="M29 1452q0 90 92 90q45 0 63.5 -12t34.5 -62q12 -37 22.5 -78.5t13.5 -89t-5 -102.5t-35 -117q-10 -14 -19.5 -21t-25.5 -1q-12 4 -14 16t4 25q43 100 43 173t-21 136q-16 -51 -73 -51q-35 0 -57.5 26.5t-22.5 67.5z" />
<glyph unicode="&#x201c;" horiz-adv-x="694" d="M-2 135q-6 74 7 155t38 142q16 27 43 17q12 -4 17.5 -16.5t-1.5 -24.5q-43 -100 -46 -173t18 -137q15 45 78 45q35 0 55 -23.5t20 -64.5q0 -96 -94 -96q-66 0 -97.5 51t-37.5 125zM329 131q-5 68 10 145.5t34 133.5q2 8 13 15t24 3q12 -4 20 -10t4 -19q-18 -57 -30.5 -95 t-16.5 -65.5t-2 -50t12 -47.5q8 23 27.5 35t44.5 12q20 0 39.5 -9t30.5 -44q10 -41 -3.5 -80t-54.5 -49q-80 -23 -113.5 17t-38.5 108z" />
<glyph unicode="&#x201d;" horiz-adv-x="714" d="M121 1378q-12 49 7 83t51 46.5t66 -2t50 -61.5q14 -43 22.5 -79t8.5 -76t-11.5 -88t-33.5 -116q-4 -14 -17.5 -19t-23.5 -1q-29 14 -19 41q18 57 29.5 94t15.5 63.5t1 48t-11 46.5q-12 -29 -32.5 -39t-40 -6t-37 20t-25.5 45zM424 1452q0 90 92 90q45 0 63.5 -12 t34.5 -62q12 -37 22.5 -78.5t13.5 -89t-5 -102.5t-35 -117q-10 -14 -19 -21t-26 -1q-12 4 -14 16t4 25q43 100 43 173t-20 136q-17 -51 -74 -51q-35 0 -57.5 26.5t-22.5 67.5z" />
<glyph unicode="&#x202f;" horiz-adv-x="351" />
<glyph unicode="&#x205f;" horiz-adv-x="439" />
<glyph unicode="&#xe000;" horiz-adv-x="1433" d="M0 0v1434h1434v-1434h-1434z" />
</font>
</defs>
</svg>
